<mxfile host="Electron" modified="2024-02-20T17:21:18.861Z" agent="Mozilla/5.0 (Windows NT 10.0; Win64; x64) AppleWebKit/537.36 (KHTML, like Gecko) draw.io/23.0.2 Chrome/120.0.6099.109 Electron/28.1.0 Safari/537.36" etag="vOrw1dPxUbHwY-Bqx3Ao" version="23.0.2" type="device">
  <diagram name="Page-1" id="og_XmYhlZl1wcNIuxgqp">
    <mxGraphModel dx="858" dy="1504" grid="1" gridSize="10" guides="1" tooltips="1" connect="1" arrows="1" fold="1" page="1" pageScale="1" pageWidth="850" pageHeight="1100" math="0" shadow="0">
      <root>
        <mxCell id="0" />
        <mxCell id="1" parent="0" />
        <mxCell id="0se6hAvx2Fd7axTDWcM9-32" value="" style="edgeStyle=orthogonalEdgeStyle;rounded=0;orthogonalLoop=1;jettySize=auto;html=1;" edge="1" parent="1" target="0se6hAvx2Fd7axTDWcM9-10">
          <mxGeometry relative="1" as="geometry">
            <mxPoint x="507" y="590" as="sourcePoint" />
          </mxGeometry>
        </mxCell>
        <mxCell id="0se6hAvx2Fd7axTDWcM9-10" value="" style="shape=image;verticalLabelPosition=bottom;labelBackgroundColor=default;verticalAlign=top;aspect=fixed;imageAspect=0;image=data:image/png,iVBORw0KGgoAAAANSUhEUgAAAWIAAAEUCAYAAAARJzymAAAAAXNSR0IArs4c6QAAAARnQU1BAACxjwv8YQUAAAAJcEhZcwAAXEUAAFxFAbktYiwAAIxISURBVHhe7V0FgFxFtj3tNp5M3BMsAsEWX9wtuMsin8UdFlh0kcWd3cVlcdfgsriFACGeTGSi4zPt9v491d3JZDI+3T09M3Xgpaff62dVt06dunWrymQIoKHR42EgGjcQiccRifEz8T2s9iX+pqXLIfmlfPK7fFpMJsj/6nxr8m+b2QSrbOpTvqu/LeY1+83qBHWShkZaoIlYo8chJmQbiMbgi8TgjcQRjAEh2SKGSYjWJJRKkjSLdZNYZeN/6lMg/yT2JJAyfkXLif+FsPmNX9Z+mhCXKxpC3IYQMmCXzSUs7VabBU6rELWQtSZojc5AE7FGzoPE2xCOojYsxBsWEo6ZFOkKLQrBWmA2m9coW7Ulz1McmvyzM1DXacSrLCm8nohp2QzE5bkMI6ZI2mKKK3J2W4F8Yeo8mwVu2azybBoabUETsUZOIhiNoiYo5CtS1xsFwoZFrNUqxGaBxZwkXfldd1pvY6JOkHOi0ojHRZ4jBpuQs9NiKGIucliQbycxy3toaDSBJmKNnEEkFkN1MILKQAz1UZNQGYlXNmnyC/d2WeFmC6wkiAQx0z8txGxEFTF7rAYKRToXOazIs4t8biy5NfosNBFrdDvqQmGs9NH1YCBC8rXYYJMmPQmtN1inolr5h8TMTsNYPCoFLwqnOY4iuwklTisKhJjNJu3G6KvQRKzRLTCMOFb7hYD9MXhjonjNdtgsFqV8e7tFphRzNC5bLCrvG4VD1HKhHejntKDYaZPfaFLuS9BErJFV0NxW+IJY7osjaFiFfEnAZF/1f59DSi0zrI6uGSMeEVKOocRhQn8XlbIt9SuNXgxNxBpZgoGV3hCW+aIIGHY4rHYw2ktb37qgWo6JUo5QKQspuy1xUclmDHDb4LTSp6zRG6GJWCPjqA6EsLghAl/MBrvNAasm4DaRUsp0X4SjEVgQQbHNwECPTbkukr/Q6CXQRKyRMYSlqb2wLojKkBk2q1O5ILS1dRypTkumZyxGlRzDAJcZA90Jv7pGz4cmYo2MYHlDAEt8ccRNDjhs0qTWVpYWkJQTKjkMm6jkUqcJgz12uJjGGj0Wmog10gp2OM2tCaA6YoPT7oDqh9MWlnaQkBkOF4pGYY6HUeKAEDI79+zJX2j0JGgi1kgb6AueVxdBzOyC02rRBJwFNHZbxGNhFNriGJZnQ5FTE3JPgiZijbSgrM6PZT4T7HaX7ozrBggfw5B/ItE4orEQijQh9yhoItboEuJGHHOq/aiM2OG2S6HX1tTtoEoOx4SQowlCHp5vQ6F2WeQ0NBFrdBr0T86sDsJvOFVnkbak3EJjQi6xxzEy3w6PnaFvGrkGTcQanYIvHMGM6hDiZjccVrMm4RwGCTkUpQ85hAFOAyPyHZJnOsoil6CJWKPD8AoJ/14VgtnmUatWaAvKfSgfsmxsxZiMEAa7TBie74RFz5ecE9BErNEhNIQSSliTcM9EKuwtGAnDYQpjZJ4VAzzO5FGN7oImYo12oyEcFiUcgdXmVuu7acPpuSAhc2BIKBJEkS2K0QUO5Gn/cbdBE7FGuxCIRPFrZQgmIWGbJuFeg4T/OI54LIhBLmBUgXZXdAc0EWu0CY6Wm14ZQMzsgV3PF9HrkPIfByMRqWRDGJNvQ3+3Qx3TyA40EWu0Ci6S+VuFD37o0XK9HY3dFaX2GMYUOaXi1ZMKZQOaiDVaxexqHyrDDrjtOk64r4CEHIxEYTFCGJVvwUDdmZdxaCLWaBHLGgJY6DXD43BoEu5jIBlz1ZBgOIhiWxQbiDrWsceZgyZijWbREI7g18oInA53Vqcgt8nNVGNYPrlKEK3TF5Ems3xm8zk0ElDqOBqDOR7AmHwd6pYpaCLWWA/ReBy/rPbDsHqyFqbGfnqS8LIosCQOLKyKYN5iL7Ya5MAeI13Ik4NeIWRNxtlHY3U8wBHDWFHHVrP2HacTmog11gP9wlURR9bmj0gV6S+DwHTZTKKEF5cH8PFXFXLQhI0H2HHjjiXYrL8NtWFNxt0FEjLDGO1GEOOKuGSTjqxIF3TAoMY64JzCFSFz1kiYBsjJ4z8JAN/LxuX0Xdy40yFHnWbMrgjj9I8qMLM6qpac18qhe0B7UHYhLaUZ1TGU1fq5N3FQo0vQRKyxBrF4HPPrInDYnFkhYaFaOOSfr4SAfw0BbrHGpgbJ35iFkGt8MZzzaSWWeePIo+84cVgjy6BdWEQau51ulAetKrSREwppdA2aiDXWoKwugIiJ/j/SX+bhlNv8FAS+k41/t3ZXs92MpTURnPtZJbwRQxSzJuNuhSS+x26Hz3Dhl4qgaklpdB6aiDUUOKPayqAJziy5JOh+mBkGPhc1bG+DhFOgMp6xIoSL/1etThBu1uhG0E4cVgssNg9m1sa1q6IL0KasobCoPgyLxQlTFsoR1e+iKPChlFt2AHXECM1OM/630I9rvq2Fy5rwL2t0H0jGyq9vdylXxYxKP6Jx7aroKDQRa6AmGEJtxJKY4D25L1OgT3i1lNN3fYnY4M4METCJMn7tjwbcMa0BBY4EmWt0P+iqqI878cvqgGphabQfmoj7OAz5b1F9FDZr5kfP0QVRHwfeERL2yyfjhjsDRbxCxg9Pq8UTf/hQrKOocgK0H85HErd48FtVGBW+YPKIRlvQRNzHUeUPwxuzwpbhNr5VLh+WgkolXCmKmKTcFaj+RLnojd/W4K2FQZQ4tXcyF0Ay5oIBNrsHs+ulkq+j31ijLWgi7tMwsMwXhd1qz6gaTg3YmCokvDSa8BF3BobZDMNmExZ3wOyww+oSKexw4PLvGvDVqrhSxpqMux/MAxKL2+HC0oAVs6p8arVvjZahR9b1YdQGw5hRE5cCk7m4YXIu1e9HIox+CSWiJdoCF4pYvDyIt7+rhIlS2myBWZq8toAPluoqefAaWCNh5aKImiwIO/NQNHwgnjxiHMYWAPUB7TfOFTAfOBrPYwpiQj+XtLz00OjmoIm4D2NGpQ/eOAtHZhpG5EKqXw7Y+KodscIprEPEbgccfi9sc2cjXr4EcZ8f8XhcKo7ExcSAYZKmcBBWbLjxcDx6xb7oX+yET5NxzoD5wEEflnhAyNgBD1s1GutAuyb6KLgcfl3EDLs1cyZA4p0mKvgbIWFGS3SEF4VeYXLY4V5aBuvHHyD8xx+I+IOIWxOuCR4z2e3KNWHY7HCIcp7781xc+M93EAzHwGkQtMLIDVDqMd7YsHjUclt68Mf60ETcR7HSH5Hcz9zEDXRBzJFbfCbKVHkXkvvbi4jJDOucmYh//RXCLLhOJ0ytNWtFdjmKPPj554X4250fgMuu2fX0uTkDkrHqxLPlYWZNDCu9OqKiMTQR90Gw46Q6ZAhRiUpJ7ksnqITZKfeBL/G9o15BFtEtHQ0omPc7AjETzLb2X8Fe6MaHn8zAjf/+Am6nGLi28JwBbY3BOZzjel69gfJ6HVGRgjbTPojqQAQhw5qRUWl0QTA8jbHCDFfrqCgNxIHxQqBTRphx8qFjYXfYEIm0v8edr2QvcOH5V3/A/c/9jMK8zPqK1bXbcf3Gz0B16JbncrkTf/cE8DmdLqCoBCgo6nya8nV5KiMqyrxmHd6WhCbiPojVgRislvSHrHGAhjc5YKOhEwM2SMLjpLDvLoXdG4xj0kaFOOWQMYjJ/li8/Q9rEpawehy47/HP8ey7s1FckDyQRjDtqLZJqG5Py8TE39kdid/Z6Anid/n85pOv8NPXP6pjuQ4+sycfmD9rHi49+Qxcfeb5iMeiDGbpNCETbqcTS/0WzK9JNp36MDQR9zFwafyGaMJfl07QDxyRAssBGxzCTGXcEQjvYogQ1D79xCjlXM5W0OCLYIfNinH0viMRDcXVitLthcVihtluxQ33f4APvl6iyLj9Z7cNp6jZJQsW4C/77IObLrwYDlHxzZFSntz3p6++ld/tjbeeexaFhfI7s4HLTj4Mt152tlKZXSGzbIDvWjZnIU7ee3usLF+C/AIPwuGYqoBcsnUgW9YFCd7hwIqQTS1GkN4c6lnQRNzHUBuKImpY01r4aUS8HCfxWdyJARthIeFiK3BAfzlXVBYJPQVvIIr9dhyA/XYZiog/1qGiarNb1LJPl932Dn76oxJFouo6TRpNwHU0G+pq8d1nH+DZf92FmdP/UMS0DiQd+Lsn77lFfvchFs6eCYsNiMdNuPvZt/H3ux9BMJC+Z8oU3ELErz71BGw2G576aCquuONmFJU48NEb70sldJFUekan7UmpbWkiVIbtmFlFN0WOJ0aGoIm4j6EqGJMmdfqmumT544CNz6UMzQq3b8BGY5B0Sb4k4UIhKZJyY/A5/fLMR+w5FNtvPRBhriTaXsi5DqcNDQ1BnH/Tm1iwpAH5XVFwjcBrMH7ZIZK2pHQAnv/3veu5GUhgP331O/745UcMGDxU9nBmD3nHELDrnn/C9jtvhpAQMcHrMSiE/tfC4sTGvwmTlNJiaSnQteHJSxxLuTlIgFTd9N2q8+STz5F6R37ShZLf6Lr5ospTUPeVyiJ1jBvvS7dD6hp8jKrVK1Aq71Ao14pIFgwUJf+/qW9h6qvPYUCxSV0/9fuOgue57TbURBNk3BeHNmgi7kPgChwNUojSOYCD6pcTu//ECLMOkjAXpOST7CskM0jII9SEhFOIxw1EojGcfPBITNykH0J+kd3thdzD4bFj5YoanH/zW6iuC8MtJJKOsk7C4OCSQ078P3z4xotYvKB6HTJ2OoFnHrwdm269vRBkP8RidLjIfrn/80++gteefWtNhx2b/6Tp/z70BM44+HCcdsAheOyuh0RRGwj4/Hjo5ntRubIC7738pjr2y7c/IF8UPn3PH70xFRedcBpO2GMf3P6367Bq+SpFzrwuw66pyl969Fm57hH4v4MPw9MPPCJEm0gA3j8qzPrYXf/C/x10GE4/8FA89+8nlXuIz8l3vOfe+zBr+k9YWb4U1//9Wrz6xHN4+NHHMfPXnxENh3Hjldep56bvuyvK2CWKu1rI+I8qn7pvX4Im4j6E+nAUYcOSmDAnDaD65RJHX4qq6+iADXIuiXhPUXBjpcDTR9waovJjs8nAX48YjVEjCkRJdpCM852YM3s5Lrr1XRWF4aCiTB7uCiIib/c46AgMHDIMLz32kFKsvDAJuWxeJT579zWcfP7fEAom4maZRiS4x+78B54WkqaP1SG/baitx8l77SCEezVGjB2JURuMw+fvvQGfNwhfQwPuvOoC3HHVhXj49n/IuzfIvjp45LwbL7wIl/3lSCF9KyZvsxW+/OBdHLnDJMydMQceuTbJ8cr/Own3XXcZxmw8FoOHDccnb70i5/sVCddV1+KE3bfFc/+6B2M32UDuPULudRHOOWJ/IcOoUum/fPcTKletkArBi+8//wJzZ/6GGT//JoRfLu8VwA9ffIbZv05TKrorIPe6hYxro44+R8Z6iHMfwqK6AJYFbXCJROpqppOE54m6fjvZ4d2RMsh7U/3+WZqz20ozmdESjcGmctXqasz+/TchgrVXVgXVaUZFTRS3PTEblTVBISCL2t9ehOr82H/vybjjsr0QCpPgkwc6CCrRn7/+WUhsK7w1rQw/fvkZHrrpCnw0Z5kctaBQ3u2fl12HL6a+gbd/mY4dhw/Fvkccj2vvuxVRqUOO2XlnuUY+nnj/HZUgF51wKr756F288+tcDBlcAFYzvga+cxzLl67EAZNHYuNNt8ATH3yGfv3d6p3ffWkqzj96Pzzz8U/Ydfct1Tkh+eewbbcVFWzD6999iRm/LsWBk0fg8fe+xiH7bo9q+Y1wuOpsK+5nwQXHnCTv8Tmm/rEAJYVWlY+//r4E+286En+77V849eK/okDk2l9F9c/89Sd8LITbIHVKsaj9S8++GP/74G18MX8ugpKW3vrOK+LG4DX84QiKrCFM6OeR72m4aI5DK+I+hIaIASv9w8nvnQVdEOVS4DmbGq/VUSEUFPLbSprV2wgJt6WEG0MVUDlhQD8bzj5mHPLcNiGUDlxAYC9w490PfsU/H/1azpcCkIYS4K2vw6Enniif9fj4jbdQVABUV4ZFIT+AE8+9XLkGWpp9jNEmK8obMPXlZ3DBP+7EYCHh1ZVATZWobUljS3IIekzY+/CT/4pSIWEeI9569jFssf3O2EFIeKXsq5DzeK9TLrwSv/7wNRYvqkO/0mLYRJ6/8d9HMa9CmF1AdwU7MitXBfHpO6/itEuvQZGQMO+7UrYJk0ZgtwMPw9RX/wt6U1jXRiJhxOWLVwg34Jd84L6w7IvH4ZUf+GVLF1+qCteeUMYzRRknrKx3QxNxH0EkHoNfClVX3cPsmKsWTmGYWkjKh5T7DiEgzzBBmsx/LhZVJud3tIixsPvkIuOGuXH6EWOFSE2iMNtPxjzflu/EUy9+i3+/OF1FUnSVQCKREAYXWXDQsafgyftuUatRv/fSi+rl9jviCEiLvkXYZSsvW6D8tOM2mQh/aO3zkLuV2k9K/pKBgxAWcuZxejrmz5qBURtstCYNuV+4Ef0GDJJTDCxfvAiDh+Th/pfeEdX7GXYbNxLXnn2hEHCl8i+vLC8XUvVh+JhxCEnrRt1XNqbm4GEjsWxxGYJk3EZIPso6aG5fV8FrJjrwHJhd3eQheiE0EfcReKUpGu2if5gDNAJSQN4RYqmT0trRyd3pghjtAvbsJwVNvndgjMY64G0b/FFssXEBTjp4jFJt7NBrL0jeVrcddzzyKV76YF4aBnyYVLqccM4lmPPbNHzz41y8+uS/cMSpZ6Ok2IpYK4EefGoqVoIKs7VKgYo0BSp5l9uDYCCQ8M0nX5/nk9QJuj68wmG77r8HXv9xNq6661588f67OG63bbFyaQXyi4vl9yZEQiEVmdEY4VAQnvwCWFlTdBNSZFwRtmFeLx/0oYm4j4BEDJNlTYHtKDgcmp1r70l5WCmX6uiADfqEB0mh3rd/4lpcr66r8Pqi2GWrfjh87xGIBGNKBbYXasCHNPuvuWcqPv1+WWLARxeeKSjct8nkUfjzPgfhqtOPU51bR59+DrwMT2slrUTAiqodi7yCQnzy9qsokjRiaBo34dH1CJLgc5K7/7Tznvj2k/fhkzzxyPPT5VAg27efvo/+AwerTr8YHceCvHwHTjj1BLzy7SwsW7QA777yOjYc2w+Dho2Q+76CfDEN3pMdiczn7z//CNvI9VXkROIS6yEmFzdJjcDBLHSJZAJ8V8YZrwxasbC295KxJuI+Ap8wn0VKdWe4hkZCPzAnd18ohNPhARty0wIpqIwVdsuFGg/Y6Ap4GZ8/goN2Hog9dxqKMH0vHYDNYUU4EsMl/3wb02dXo1CIryNkTP9o6pPnkfROPPcyzPr1J2y7694Ys2EpwolgCRVdQKWqkk7+CYsKZcQFSa+oxI7zrr0VT913K+6/69+or63C6uUr8dZzr8JbT7WaKKZKESfT3i+tkpPOu1Ap4ktOPBblZYtlXy2efuJFPHbXzbj4prtQUmTBwtnz8NDNd2BpWTmWrqjFlx+8o84ft8l4la8XXHc7Xn/6ETxw13/QUFclFchyqUjORXVlBU6/9G8ICPfxlvQRUyWnwPcdMXZjLF9UhlnT56O2qoZ7EwfTDEXGDgeWBSxY0ksnCtJE3CdgKN+suRM9UyyEdEF8Icpuhsi3jg7YoPKlet5fSLikmQEbXQU9EgFRw8fsMxR/2rwUoY4O+HDZUFvnUwM+lqzwtXvAB3/jcDoxePhINaiD3xnlsMX222K3Aw7Fwcedovy4KYwYs4Ea+MF5M7jaPM8bOGS4+ru+jm6NM3DpLffiP7fegIO3HI8T99wWrz39H9htFlG6dvV7d16e+j1BThwyYiCe/OBLIdl5OGqnbTFlqwl44B9/x7UPPIrDTj4aDUKi7jyXItpjdt4KU7aeiPtvuBzX3vcottt9R6yqBQ4+4Qhcc+8jQt43yfkTcdSO22Dm9B/x5IdfYfjoIWrkH5+5dOAQDB05Zk3a0O990HHHY/zmW+G43bbEPy89V9SzqVXXSlfA+7rtTiz2mrFCNTN6F3T4Wh8A55eYVhGGxeZKCap2g8T7gxR6zivc0Vhhqj0a14FCwhu4Ez7i9qCl8LXWYLOaRJmacM9/52PWvBo43B1oK8tLhRqCmDh+GB676TB4hJwD8s5tkQqLDqMZLNIuT4VYsa5T7gR5ceUWSF4jGo3ALAfMyffheTxm4csKeE5+AVC5OoTF8+fAk5cvinO06rCLSm2WuI9F7rO2MmXJ5WQ8cmmUzV2IgN+P0RtuLArbioZ6OS7n0t1AIb14/jylwkeO2xD9Su2iuhPn83k50q66MoJF8+bA5XZjzEZjVEwwVXcqDdRgFDmB70rwXLokOEpw4ew/pJIZKFt/yQN1OGOgPQVCAYwvNqMf1yzsJdBE3AdQx7XpauNwiaLoSG7TBTFTVDD9wh2d3J234b12LQY2E7JoLwkTnSFi3s9pN4sKjOHu/86TZrgPNlsHnljejzHGO+2wMR74+4Hy7KY2Y4xJUiQsqtTG6Upy4/fG+/ga/J4iqtTgh5TCTYHvzkEY/B0jIFJRb9zf9D4p8H4kXHJ0RIixUZ+eAu+ljsvzRuSaKb9xY/D6/A3v1/i+KagKRs5vem2+l034kJUBt2yAjxYO+7BZPzvyuK5WL0AHLFWjpyLItmUHs5oREpxF7RN/4syOGgpdEFTBW4nKS0fHXFuQx0VIbjp0gBPH7DsCVou5Q7O1kckdBW58+b9ZeOiFH9Uw6LbAy5PUmt6GJNp0HwmssVokqTYlYYLXY5wuXQ+NybC5+6TA6/L3DDVrSpQE78M5LdTxZkiY4H4eb3rfFHiP5q7NfTwvWyRMsA6z2dyYURVCkC2LXgBNxH0AoRhnx5KsbqEgNwca+2+irnxyDtVwRyHiFAul8L9dKdeQwuqS7524TLvhkBu6nFZ89G0Fnnprkbwqh0R3/I4mjwMvvz8d5SuDsCVa4Ro5BpqxlXGYVjf+qAqqOVR6OjQR9wGkiLi9PEz6YqQDFXFnuYjXYPH41Qs8v1I+GxKEToJOJyxSIPM9VqyoCOP+5+bj4ZfnY2VlQJrSHSdhwmazoLrWhwVLq9R8FBq5CbYO7NLqCZlcvWL6TE3EfQCM4e2MOqRpd47OEuC5VMJ+uf8H1cCbFYDwJVwit7sysCQFN+fPlPd66/OVuPnRmZg2owp2hwX2jviGm4OU8phy52jkMkjGTqsFdTEHFtSSjHsuNBH3ehjKX9sRIiYB00fcT3guHR44KmGnWBpdFS+tAr6uSRQiRyetjxESeW4rZi304tbH5+Dl9xYjFInB4er6hPdRIeC8fBdGDS1BuA2/J++lpplssiUDIXIG7Kzjc6XQ3HOzM64ngnbE0XeMMe7JYW2aiHs5uNZbLN7x+E7qwYnSNCchN9NH0ymQeBn3+1VdgpAXSbkhQbfXB813IAH7AnE8/fZS3PHUbCxc2qBC1dg511WwAorXB7D/n8dj9DBP60TMdBHSbqjzob7Wi/qahjUbp5jsKNoZHNJhMM3CwQi8qYEQ8p3Dwb11/jXP3VDrU0TMMDZuHbWV7kaCjJ1YUG+gltPA9UDo8LVejnAshl8qw7Ba2xEG0ASMG2aH3cdShmkkHZ1bojXQB83LcQKg7aTwF4qK5ExsvE9z4WvsjKPf97vfavDax+WoWB2AzWXptC+4KThxUKwhgO132Aj3XLG/3M+mZj9rCZxHeMZPf+Dsw/dAJBKBwRqGjyIfk7fZAQ+99lYiAoEv1ApUy8Ah6SH8wRF6nRl00xq44sb9N9yGd154Ci99NQOuPBMWz1+GU/bdHkG/X5GyIuGiEowcuyGOOPUM7DnlQBUfzFC3nkTKzIJoxIvNS51wZmrMdYaQ3lzXyDlQEceNzpUmzq62mZDEYfnAAOFDTmyTLs8pSZ1KmJ15L4g6/k0+qb6bundJtOyMW1kVxgPPLcB/XpiPytoQHLIvHSRMngx5g6oX/sxTdsaD1xwMl9PWLrdEKBRA5aqV+OvfbsB9L72O2554Fbc9+QrOkO8qFpcXbwQSXlOe5Uoan0+dipP32VYNeW6WP+ReqbjjFHh/1lFtESUbClxbj6trEPw9h1pzEdBjz7wQD776Om557AWcdO6Fcg8Tzj/6IFxywnHynEbG5o/IFPiuJqsbM6uCYvM9y8ffxCw0ehuiwgbkg84qm6CcPFIK5JFCxjtypWLZR4JOB3gtduYxvO39KuCNClHC7MyTfeRYl5MjyUx4+/OVuOnhWfiZnXGyr8udcYRcP8QVSxqC2G6rMfjvHcfgklO3ld0mBEUNtie9UqPpttxhF+y655+x8767yLYrNttmsorLZcQg13/jBD2qyc/3EvJMNf9J1MV2qOkqZ/z0PYpKXOoYQcJOnZuXXPWD53OjylVLHEUNOKShQzJvCcwqjoazU3YnkXruzbbeHrvtthN22W8PnHz+mXhm6tu45/l38N7Lz+GR229HXvJZegqYnoyk8MOJeTU9y18s2arRmxFle01RXudB4qWh7CiF/igh5NG2BEGna6BGqjNvgZSdF0Udf+8TZexyYm6ZF7c9PgcvpbEzjuBAj1BdAP0L3bjuwn3w6E2HYtIG/VFTJ+8klUJH7xEKBdVk95yXgRsHT9gkjepranDeUcdh5i+/4cEbb8Xh203ClK02wVP3/VsRKZcyuvbyv+P5h+8VgrbgpL12w7lHnaCUaMXKlTj3yGOwYNZcXHv2udhrkyH47Yfv4bBG8eBNd+CYXXbCgZuPwtE7bYMPXntHrRjSUQQDfnilwuAcGbXVQKVshx+9Pw47+Qw8dteNqKkM51zHY1sgGbttVqwO9azOO03EvRwkHaOLREywoUfXBF0Uh0ih31uIhBOgc1+a+Fit5mwRcvp8aQC3PvYN7n5mLhas6YxLAwMLQoEwIoEIDt53M7xw97E44eCJaskkztvbWdClEApG1mz09ZLAgv4A3n/1OVx1xnFoqKvDFbfehl0POAw3X3wmPnz9HbikYhu5wUZqvTv6hjfadHOMGz9JRTHU19YIwb6AWy49GzVVlTjy1L/K7wbilx+nY6oo1oOOPR43/edhbDhxc5x/9IGYNX2WIveugCTmE2Lec8pR8HsbsGjufDXcuqeB78Hh/Avq4/C25WPKEWgi7uWgUaYT7GSjEp4sLd1jRB3Th8zv3N8VWOQ6Unaw+psZ+PHm/2Daxz+xTQ2Ho4lztJPg4qOh+iDGjSrFQ9cfijsu3wuD+uehWlRwZwdmmZOO2wuPOQC7jh2B/ScNx36yffXRe8gXUkxNXzlxiz/hxrtvxp/33xfXi9KctOW2ePWphyEiH6eedoJay84mjPf3u+7EhddephR5qtOudNAQPPra87jkpmswbPQojBizEV74chrOPO8MHLjf3rj/yX+jqF9/fPL268pN0VVwyHIeF9wTNNTXKBdJTwQf22Z3Y1Z1qEeMvNNE3MuRZh5W4DWphD1iPfsI4UwRhVwqnNSZzjz6PO1C6MGV1Zj2wEv44d8vw1tdC1eeS0ig6yqYzxryhWCTJzv3kHF45cb9sceOo1DvlXu20xfcEriwJ3HyBVfi+gcfwZV3P4wr7/qPWuQzINdOpf5uBx6uBrUIr6m47LGbTFDLIzEqQR5DrY7M4KXa6jBEOCukgpkOPPpkFU1SXSXvEQQGDctHTGq+96d+gwfufwzXXXY1wsEgGkRBp6PNwPRIrQTClUMST9HzwOe2if2ETU7M7QH+Yk3EvRwJqkhHEV0fVML0FY+VpjR9xzukOvN4sC3LkuM2j4hek4Gyt7/FVzc/giU/zoDV5YA1HTNqyYOozjhRwdtuORovXbcnrj5+c7m+B3VqdeTk77qAFFnuuOd+OPiwA7D/kQfhwKMOxuDhQ9aJuiBhp0QZz2hXxGjyNw6Xa81EPZzy8ttPv8bh226CGy/8P1HBL6OmqkKp53SEvfGWHNY974/fhJBNGD56nKoseir4Pi6bFZVhK5bnuL9YE3FvRzvKfFdBMqYh7SRN4yPzDIyMhuDjmusOIVtRzGYp3GbhVm4MZ7aLgubixBU/z8W3tz2OX59/Twp8BHaPSxFAV9G4M+6aC/fGozceig03H48ltuEImBwQ7gcj+lRUX9dvB78o2gapfbicPOcB5kxkjV+jKfHye+P3XHt8/YdJrQLCUDW/N4xLTjxCRWlwif4n338f9z1G10SpCqXrKkj0fj/w+F03YY+DjsTQUUU9mogJRcai7Msa4vAn1/LLRWgi7gtIA9m0BdIFXRMDbSYcWmLGjt7VWPX+N1jwxW8ILK9GuLIeoZU1qP59Eea/8SW+u+0xfH//86hcuFSI2Q2zNT2+4FRn3IH7bIoX7joWJ02ZpNRpA3nKZE4khShUV/1yuGuXwhSLJAi5C8gvLEKxVDpFJYmN4WUdrU9Ixu48W4vRD+zAW7F0lVoLb+/Dj0V/l1XFXP8+a6WKCXY4O95Tx8VBi63yzP0SW+XKVTh1/33gldrkyrvuU9EfvQEkOavVjTk1ofUqxVyBJuJeDkUI2bA93kc2TjAUs9iwy6QROGvbsSidMxcfX/8gPrzmPnx968P47t6nMePlD4WAy2F22GBzCoN1FXJfzhHBid3HjizFg9cfijsv3xuDStd2xqV4kaRrjQRg91fDGqoXMl4CcyfImOmaUqsP33odrr70Cvzj/Mtxg2x3XHWDKNTYGtWr1qpLXp8fXMLeW1+n9lGkbbzZlkJ6ATz70AP4+uMv1fOmCIMrc/B3VNlDRw7CiLEb4rbLzsE7Uz/Cq8++pFwUXP2Da+Ilb7EOuI/HOKhDfZcdKd/2Mw/egav/dhWuPesCHL/r7th7wgZq3bpnP/0Wg4cPUKF4vQFMSZvFBF9clLG0lHIRlusEyb81eiECkRiqpNlsy9RkBgKSmDkWFZVZDpuQW9TmEUI2o7hfHnbdaTzGjByMBWUrsGRZJewOO+wuh4qbbckNYWLRsdjREOYzt12LhLwh2O1WnHLUtrj5wn0wcYMStV6bWo2oyS341TBbYI6GFAGbjBisYR+iDmmXNx2+1grokg34w6JGFys/bXnZIqxavhSrli1FXU2VNO2PUn7bsrmzsNPeB2DgkCGKTBnWtqJ8pVq/bsc991UdcMNGDReRbsKLjz6AJQsXYr8jj0E4FEX5ogXYed+D1RJEdBE4XBZss/Pe+OW7r+S3j2DpgjKcdvHfkFdQjHGbTMKELbZQI/oag/erWFml1tXbdf8pqgM0HIxi+ZIyNEhlsGT+QhUqN3LcJjjlwr/h0ltuR78BJaKK10+7ng6btLqq5d0LbNIiyrFhg3quiV6OKmmqzxZV6LLblb8s7ZDCaooLCUsz3xLxi0HF4S8aiYizQPliWZjzPEB9QxQvvvkVXnnrG/gDQdnXcqyVCXEYtjwsa5D2eFK9rQe5bkjIiuvYb7PVGFx8yk7YcuIAeIWA6YpojURYcZjiMbjqyoWEveqZA/LM4eQztwdMS5KcpxlXAo/RX6zevYBREQnly+88xnhf1ouK7OT3Jvmb12mojcNqN4MravC3ymfrXVuhqHPZwSmVQF1tBHn5tjV1h1phQ8Re0/fmOVwSn8sg8ZnUcyfvp25OyCf3saLg/VIdi70RXEcRUS+2GOCCtQMVb6ahibiXoyYYxsxaQ3VYZCKnqSgVCUcTIyJiVpcQ8Qg5sNbIeVuuduERApoxexUe/e9H+P7nuXA6bHA4rOs9V1tEzM64SEMQJQMKcPax2+PI/SaJ4hei6cCgjAQZx+FsWMlvCOUPkn1yEZJTN5UIkiHToi0iJNmSQ0jYuvR2DEy7QCSKUlsIG5ZIrZYj0ETcy8GFQ/8QInZmgIiVvzXsh7t6obLwmM2NQOFwxEUqtqQsuRYciebdj6fh6Rc/w6qKWuTnrRst0RoRszOORHnA7hNw/ok7YMzwPFHbInLkZ2uv0E7ICanHTD0v1TERN5tbfAeNng2amk+aDxOKzSjJkZWgNRH3cnCI52/VMTg4bC0TOS3E5fCtVj7ioKjK1kg4BfpX86VpvHRZA54SMv7gs19U4XA5E+Np1yNiOaamqfQGMXbcIFxw8k7Ye8fRygXRnmXv2wNWKpZIEK66pXJBs1QoQ0XdOzUZ91LESHtRH7Yc4IYlDTHYXYUm4l4OrnI7vTICm61ln2yHQNITixHDgcGRb/I3SSx1qL1kz5+RdzmXwZffzcdjz32MufPL4XE71QocKSI2pP0d9oVUB9+JU7bA6Uf+CSWFNjUyLp2Wy3ewB+rgql+iXBSG2Qp/4QhR+ZqMeyNYedNFMcAewgbF3e+i0ETcyxFJTgxvtkrzP7mvs0j5VV0Ny5R6DOYPQcTh6RJRsUCwM6+uIYqX3vgKb33wA6o5DZoQcWW9sLSQ8nabj8L5J+2IrdkZ52+7M67zSMQXW4OJnra42QZ/8UgYFirz5E80eg1oQ75QAJOKLShKtsa6C5qIezkYM/rzamm/W91dJmISlbuuHJZQgxhOHCFPKYIFg4Sck4c7CVogp410OYFFS+ow7bcFWFXtQ8zswqYbDca2mw1VnX1dmSGtXWACycO46pfBFqwV7jXBXzIGUWlNaFXcO8H5ui0xH7YY4OnUArvpgibiXg8Dv1QEEDG50aWZJIWJXHVUi7XytxlxUYlsuhtWURJptCC6KjjfAcsEPXecoSwQkCogS1aqVL8UCQ74oHsi4kzMjr7G/aJLS68C7cwvTazh7ghGFnR8dGK60P1eao0Mw6SGwnapviU5CRNaVMytoTrkAkLC8TSTMMEBCQ1exh0DtbL5RAVni4SJBNGaEMrrh7Br7RIVjA6xRMNrCFmjd4DFwinNsWU+Q/mMuwuaiPsA7JLLjL3tFEg8cqphNiOYP1jIqVhIeCRiQsK9WR3S3cL3MyTt6KZwV5fBXVOmRuFxn0bvAbPTZHFhQZ2aN7BboE2qD8BhMSlfcYfEXPLHZg63IoSUOFouUDRUKeE+1USXSswkL0y/uBqNFxQy1sq414Cm7LCaUROxoMIfTOzMMjQR9wEkiFjMrb3kkVTBzoYV8FTPU3HCCd+pbOyY60MkzPeNuIsQcvWX95YvJOP6ZTDHOe44+SONHg8WD4fNibL6aLes6KGJuA/AwckJ0DHjIgnbAjVCvkZiDonk/r4Jk4oOCbv7KVVscFkRzcK9DpwjOwwHyjmXdpahibgPgERsFhnbHjcxla/DWyEkXC1cw1haK0KegX1JBK8PtgRk43wU/qJRCBSNkHTixBDyv5Qg7aboHWD5UB13fslrzrSURWgi7gNwChFbpY3dXjI1R4NCPDGl/Dh3RNSu42gVJA2iDk8iWkTAGdwcDRWwhnQHXm+BWibR4sDi+ux23Gnz6QPgvLhcql5NAdgClKqTjR+hvIGyDVJTQ0Ydbk3CjaDSQjYSr8NfoVw4rrol0oKo02TcC6B8xVYLKkLmrC7Fr02nj4BEnFpRYj0I+1ojooK5eq8YIhVfMH8AopxnIfv9Fj0Dkk4xUU6cZJ7g0GhboF67KXoDJG8tVgfK6rO3YJ8m4j4Ct82MuMHle5I7kkj4hFfDXb1AKTsVGSBIxdFqNA+mTdhdrFoPakURkVJO70qYu6HHXSP9sFvMqI1YUB3IjotCE3EfgZtdwkmSXQMhYae3AnZfpfxtTi4dpNm3vSAZh/L6I+QZoNKPS0QZ3ThfgUb6wGJgF1W8xMtOu8yXCU3EfQRuqwUWzvObtCn6M+nXtKsYYcZUQI2ci6tlIhK/0WgbbDmEPP3h7TcOwYKh3KNaGalNo+eCC456o1ZU+jPvotBE3EfAkUMOs7HuvA2ikBkXy6Y1SSTizNfuiE6AaWZwATsByZdRFJ6aRbAHajUZ92AoVWyzK1VsZFidaCLuMzDBbeO0fwmyUCPGXEVq8p7Gi31qdBKN0s7urxQyboCzfjkcaha35AGNHger2QRfzIrVvsz6irWJ9CEUOKwwh+pgDXO5X+4xIewuRNSuQ9TSiaizSEVT0OXj8K6Ew1ejlXEPBVWxw+bAUqriDPafaCLuQ7AFvMivL4e7dhEskcAaZaxJOH1gWnL6zGDeEKnm4pK+cTVKUadxzwX7uQNxG1b7M6eKNRH3EdTU1KBi9SpYVNyrsIImhoxBkbGnCMH8oYhJa4NzVKxRxFoZ9zgoVWy1Y5kvxm+JnWmGXqGjDyAYDKKsrCzJAQYi+YMRchdrlZZhqBYHP2VLpTWHjselMtRp37OgVvIIhbBJEdAvA0vwa0XcB2ASK+LGpZKM/GL4nEU647MARbay8ZOkbPdVwFM1D0751D7jngXKVZuo4vIMxRVrRdxHQFVMawpZbJhRHYPL7lDGpZE9eKoXqAmVpNgh7OmPYN4ArYx7EBKqOIgJxWYUp3nVZy2Mein8fr/yC6fml3A6nXC6XMizmmEzSfNYE0BWQQXMEXicPpOj76iOHd5KrYx7EChcrBYHlnvTPxmQJuJeiIaGBixevBjl5eWorq5O7k3AYjbDbTEQ1UycVVD5Rlz5auCMif8ZMViigeRRjZ4Cu9WE2ogZ/jQvNKqJuJeBJLxs2TL1N6e/tFoTI74ao8hhRiwWXW8CII3MQg2icebDXzRCqePEhEE8kFDMGj0AUqGazHas8KV32LMm4l4EuiFWrFihPun6HzBgAIqKipJH16LEaZWyz2GbGtkGlTEH0HDpJTXBPAt2PKaW69fIfbDM2K0WVAalVclpY9METcS9CIyMcDgSoTX9+/dHaWmp+rsp3DYrXBYDsYT7WCPLIBlTHSdqQgOuuqVqqX5OMq8kslbHOQ2u4hGBHavSOBmQjproZaAajkQiawi5JZTVBbAiaIdTandtAN0IIw5PzUKYoyzUBiKuYjULnmbj3AZXu7HGfdi81K0EUFehFXEPB8PSVq1ahVAoMfySfuG2SJgocQoBG3pJ+O6GIfkVzB+SWOnDZIY9UA27r0r7jHMcHPbsj1lRG0xPBIUm4h6MQCCgoiNIxCtXrkzubR/y7VY4TLFW17HTyDyUz9jhVrPgKTLWDdQeAWaTxWLDqkB6oic0EfdQkISXLl2qXBEWi0XFCXcEZlFfRXYgksYOB43Ogf5irpTNpfo5JSnnpiBBUxXrKTRzFzYupxROTxnS2dxDsXr1auULJhEXFxerCImOor/LCiOuw9hyASReRlFwXuhUhnCCeYevSv6SgzqPcg7stIvChopA1zvtNBH3UHg8HuUPJgkPGTKkUx0GhQ4rHGbtnsgZkG+ZF5KVXD+Q0RSO+uVw1ZbLsbj2G+cY6J6wWWxYHeh6+JGOmujBiEajzQ7Y6AgW1PqxKuTQ0RO5BCFcxha7axYJIYcUQUcdeQhwTTxTYvl+jdwA9U8gHMSmJRbk223JvR2HVsQ9BOFwWA1Zrq2tTe6RpmsXSZhQ7gkjogq/Ro5AiJdTZQYKh8mnXeWNLViXWANPl9jcguSVyWRFZRc77XS29gCQhJcsWaJImNERsTR2sBVILe4yxxDVgztyCnRRxGwOBIpGIG5xCCHbELM6VMHXyB0wO2wWK2pChgiazmdOL3VNJCa1icmrxZKffMt4o1dlk8Is/7Amspg5V69s8sl9SoLkCEjCjI7gJ7OqoKAAQ4cO7ZRPuCUsqQ9gaUAI2UZ1nNypkROgX9gcl1qSPmKuFC35k/IVqw+dX90OFkW6JyYVW1Dg6Jx7okcTcTQeQyAShz8aQzBmIBg1EBabjcgbxeJcMYzkS3PlgvEp8Du/GQkyk9fnUfaAmkWGWOXTLuzssAAuq3nN5rQw4J7nZheMjmCcMDvm8vPzMWzYMPV3OhGMRvFLZQR2u0sX7FxFymzlH4e3QgpuVE0apFf76H4wa4LCQYMcIYwpcid2dhA9iIgN+CMxNISjqBe29UeBkDBt1DCTRoUjE5tSubKRMxVtNuLORn8qrHlx+YN/q03+oXKOU4FQiQidm2VzmA24hIvz7SZpzlvgEfXIKSUzDc4rvHz5chUnzOiIdJNwCn9U+dAQd8PGGkkjJ0FNwcmBPNUL5W8TYjY3AkXDhYytmoy7GZxV1hz3Y4tSV0LgdRA5TcQxIcK6UAQ1oRjqwoYQLynRImRkUYtgJlRs8sfyFul+kVR6JsiZ48vjSf9sTE2uni8txWKnBUUOK5xp6DhrCcyidLoimkOlP4TZ9YBbr9yR0+A8xq7aJWvmMo5ZXYqMDVPm7E+jbbB4BkIhTCw2obATq3fkHBEbQnY1wQgqA0K+EVG9BonXCqsiX3lg9ZvEb7sDKT4kMUdiccTjUVHMUSFlQ83f0M9pg8Pa+RAjhqSxQ47Kd+DAgWrUXDbAFsDPq6VwWz26BzeHoXzGsSjcdUthjvilAMfV8OiwuzAxo5tGt4C0QPfEYGcYowtdiZ0dQM4QcSASxSq/EHAwjmBcSNdig01ISCleecKcqi0agcTMFIywUzAWUaRcbDcwwGVFiYs1Y5K52wGqbUZH0B3BEXOjR49GXl5e8mjmsagugGVB3WmX60iRsbNhOb8lJg2S8pKzhaSPgAOjbIYfm5eSiNtf7oluJ+LaYBjLfRHURkxiYHbYLfS9Jsitp4GknFDKMUXKHksMA90W2ext+pNJwoyOIAkTLpcLI0aMyJoiJthpN60yDIfdrQt1riNVztfJJ36RAzym8y/7kHQPhYOY3M8Ct61j0RPdRsTVgZBamro+SvUrBGw1J+ynlxgQSZmxueGoEJspgkEuMwbnOWBtgZC9Xi/KysqUSyJFwukYsNFRzK72oSbqkgpROyh6DMTWOJ+xs75cfeG6eDGbXbsqsgzlJw5HMMoTxdD8jrknsk7EVMCLGyJoEAK2WR2wWUQJ9+Lam5nDJksoEoYdEQzxmDFUCJkRHo1BRZwarMHoiO4gYaIuFMbv1XG4HU7tnughoKvCFqiDu26JmkqTo/E4ECRmFTLWeZhVcPyCx+THxP6e5J72IWtE7I9EsKg+jOowF7R0KMXVlwq6ImRRKCEqF1MYI/JtKHULISeP5w4MTK/wI2Ryw8qH1ugZYDRF3TJYw15lbHFpZXJKTcOsoymyCVJaLOLHlqXS+u2AWzHjRMzLc+TWMr8Bk8WpIgr6stIit3HASTQcwIDQatjiCQVs7+B8wpnEKl8Q8xrMcNvtWhX3FLDOjMeFjMthDTXIVwO+kjFqoVKtirMHlu9AOIRNCoESV9sr5aSQUUcgm7nTVvuwNGCF3e7p8yRM8P2tUkiKA1WI+X3wybayujp5NDdQ6raLao8ol4pGD4HkFZdd4kRBYU9/te5dzOZSJEzXRQ42vXonWGZMFtRxiG8HkCEiNrCozo/fq6OImj1KWdEOtLoiDDjrl4tqqYPZbILV4cJyFODXSp8K4csFcPWOwW4zQpGIquE1egaU8pW8CxYMRMjTj1/Ufks0BFMsmiBkjYyCWcAxDw3hjpFd2omYIVC/VvhQLirY5UgMmdUEnIQUBM4zy6YjE4VDU/2Fw2Fz5cEfd2J6ZQgV/mDyx92LQR4H7AjrJfd7IBgtkVLCtDVP1QJ4aspgjQT0NJpZgFU4zx8DwrH2z5KY1mypCYTwS0UQfsOtVLBqLiWP9XlQjTA9LFY1WUvUWahGRHGqQ85ORLeN1ebB7DoDC2sZS9y9Kce450FUxVGtinssJN/Mcck/Iy7kHFUrflhDQsY6PzMKlpcYLPCGu4GIlzUEMKNG1J4tT0ilb0VEtAnJGBNrRxYASZewuxh+TtYiJJyK9WR6cRShm66KoBUzKn1qro3uxBCPXcwprAapaPQ80LbCrmKxtxL5RjKOwVVfrkblKVvUyAxYXkwWNESyTMRUcAu9JiERtyKTnkTCfNTGW1pBY5fNWb8Cnup5sPuqlBphs1H585q7oexja6Iu5kyEkUW7z2/M8JvBLhOC2lfccyEZFywYgoizWLhYiEHUcTosPWW+qU1jLZgenJTMx/CodqKLRGyokVjLAlZ4HLkTftUSqOyi3MQWGRHAZCK/sPJgQvBv/obH1O9k66oaJAnbAjXSRIzCGm5I7m0drMg430PY5MavlUH4u7ETbxhHA2pV3HORzDfOR8FZ2jjQIzUvBf3FbbkpePqaciNb43JjSZYbYr2yxR/1YXCRCa6e1HgxitbQhThiAzOl+Vwdted0vCkNhBtH7CbmEwaKHfLZSqw1NUODJGJtCKgPixGLkOA1FGG3Ybgp0MCd3gpRwasllc3ynaFFwzsU10kVGhGrNqI+TOrngKcLixN2BUvrA1jst0o+2/p8AevJSJFuokUWhzVYh7jVKTaZCHNrDFVu5JNky3LjtgIe2bhggk3KkiJh2WgP/J0azi8by4o/Avik/HC+cB7vSLnpNZD3DYeD2KyflBsRVW2hk0QsJFzlR3WEJJybhZO1MkHjGeQG+iWnCCWxlVWHMb8qIp8RVPpj0oQQoxRLKXSa0U+sbkyJTW0ji21ChgkLWi2kzFkiOSE9QUNsFXLcXbNYhalxzTFFwg4hYVptB5Ai47iQ8Wb9HR2eTCQdoK+aU2SabHqKzN4AKmFnw2o4GlaqEXjBwmGIOPOUbbLc0LRZbkpEsBRKuSERs8yr5ZqEoTkzoFJ6LGPyY5YRtSAD51FRjGsGvaM+IeQaETK1STFD2+krhMxyGwiHsWGBoUbQtoVOEfGcah9Wh+1KoeUaCacImAY0pkBqb/m7UqrnqbO9eGeWD9+XB7CkLgojKFbHar/x86eMxMr4XjPGltixwwgn9t4oTzaPEDW7roCFdaKUkwsfNzWslA+Yn5ZIEPZAjRh5kZCwqI4OknAKKTIGybjUmdFJ6FtCeUMAi3xaFfcGkIgd3irZVqqWGg3MlzdYRfKI9sBAF1Cg6vs4YpEowlHOJhiTfG97gUxFykLINivnkrHCZLGwmxDVImRWipChUu4LhMzX68j8xB0m4oW19Anb4HHkljuCj0KuyhOOGlcohiYpMX15EPd/VYM3ZjagukaYk1DtKvlszRJ4Mb5cyjEmPx0opHzw+Dycs0MxJg12gjw+vx7wimFxnTt1NfmHs2AZZiErMUjVFOTGS/CaXQDJOBwT5R73Cxm75DVa8a1kAKmJ4w2Lp+3WgEbOg+bo9K6CzV8pLR4D7vxC9Bs8HPkk4HgMwVAYkagIlmQh78gKMY0phaRsl1ac3SFlQii4Mggs8yfcFiw3vRmco7zAHMD4fm2vY9chIl7uDQj5mJDnzK2ZuShsieF5wCAnMLcyjOs/rMBz04UpyZhOkm8Xc52ELNZjdplxzGYFuH7vUoztZ8cKMaxyrxifXN7to0+4QtRvnnJFJFg4fWBZYC2bZwpg01LO7pRdS+YcFHPrzTlXCWt0DvSyebyrMSTPjJJ+/RUBB4IhRcBEupbnIsXwWnZpTTkcDilKJiz1ARVSdniH3qqOyUsWrmM3oO2J4ttNxGp6xKoonPRzJvflAsiPThGH44tE7MqD3fxpJW78uBIBbwwQ0kx7LjN1A3HkFVhxxW79cOVu/SGtLiwor4KpboUaCMFBG76SsaKM5cHSTFgsG/5wBIMcYYwr7thUe12HgemrkzOz9fa2ZS8HO9c8on7pvnNLMQmFQgiHpTWXJM1MgNemQnYKGVtFJVdKwVksIoYt2d7ayopEAtiilAtetN6CbRcRR6SmnMbOGiubpbmTYiRh+rI409HSughOen45PvtDcpYEnOmc5c0DMey+aQGePGowhhUYKFtUjkAgiEgROz8KuuyOaAnMAl8oiI2kEA3wZDdskPNJ/14TV+GK7avCNXINESHhfmI2Y/NFpxhx+PwB5QPOFAE3BSmH6pgrk/tjJsyrS7gqehsZMzmDYS4oakaBQzndW0Q7iNjAjEo/6uPsJMqd2dPIg8V2YEMho68W+3HkU8uwoios1Xt2fafwxTBEarw3ThmBrYfaML/Cj0pznuokzCSYDeGwD5v3d6iY42xiZpUPdTEXHJxTOrlPo2eAJMzOuNF5okSjEfhFOJACskXCKfCeXAbM43YhZJgxV8hYdE2vImMmKVfsGJcfx0BP65ETIh1bx3JvEDURqb1yjISLkiT87hwv9vz3EqyojUhbK8skTORZsLw6gt0fWoRPFoYwrjQPBcKLfMZMgp4Bs9WFubWcJCi7GTOqwI54TApwLyo0fQG0yQGihEnC0UhEKWEi2yRM8J5U4V6fHw5THBuxg12KbyrqqVeA7yLvGWrHzFmtEjGnZVzUEIcrhwZsMKMY48hm+YfzfZjy2FKR//Ki7JDrjmfkPV1mNEh1fuAji/HNkgDGi1Ex9jKTRsX84Con9TE7yuuzO2MbY5kHi6oKhqOq1tfIfSjxQp9wfoKE/YFAtxBwY/D+jEkmGduFjCmsGEmR6nzv6eBrcEpZxlC3hVaJeEGdFHCLq23ZnCXwxdh0mVgkzePVIRz2RDmiZDtHN5FwCry3VASBUBwHSsXAASPjixNNk0w+FsnYZbNjsS+uph/NJkYWOGFDUHX6aOQ2WETYoT1WiC4uKjQXSDiFFBlTnbssBkZLRcEyk8lyk01woEu4HYqsRY6t9IdQE7HCyZnUkvu6G3yfcWJMAVHAhz2zTGpSIZ/uJuEU+AxCxtW1ERz13HKYpVpnZ0imiUq5KKSyXFjH2I3sgdEhowusCEWCqsLRyG2MyaPaNBQJ5xpSbopgIKj6fQZJayuTrclsgkRMv3xbJNUsETN4f1FDFA5b7vSMs2lV6gQKpXl11turMHuRP9Ex157nY67yAu3Z5P9Og+fKM/0424tLplagRIyK81pk0qiYP5x2tDpsQU2Q4/6yh1K3E8W2GEJS22guzk1QCNCNxIEajOih+swVNdwYfKZwJKLcJsM8Cddeb3BRMKkjhknyoXVF1mzUBAduLPTmznBWPgJNZ8t+wPtzvdj3ocWJtlZb9sQTRT0XFVoVWRHKBpt7JyaYMGZVnahs/rQr3be0oBjw04WjMXmoE9MqE8o1k+Ay3g74MbmUo3gyfLNGYD/CL5Vh2DmZUXKfRm6ARd8utkxXnqEiJHLHJdEa8vPyUBsxYW5974iiiEQDmNyPAQ8tRzetR8Sc4GVahTRfrLkzwQuF6khpWpXaDUy4pwxzlgYTnXOtgW8Vi+OugwfhuMmFUqmY1Pu4aZmt4JUZDSoe2U8p0RX2DMSw/cZ5+PqvI7HYlxhnn8khnSxf/lAIGxcC/dsxyUg6saTej8V+W07OPdKXwXJDl0Sp04DX65O8yf3M4TPa7XYVYzw7OadLjyZjefZQOIhNSyzIk/LREtYjYoarLfRasqKGeXneQ32qPWvBtE+lPzNiC1HDT/xUi1OeWqZCxtqEEOGemxbgw1M41DiB5fVRXPreajUl5tqrJxAXRTmwwIo79xuAy6ZW4Papq7sWDscXCsbw0TmjsPs4D37Kkip2iireLMuqmCb0S4UPEZMnsUZhcr9GZqDKi/yjPtWetWCup3KejcaJxaLIwiEEg6EeoYZTyM/ziCo2Y46o4p48JwWTnIM6xheZUOS0J/euj3WImH9Oq/AjZs7cxC68GVvu/GQC01hcoti5cT4egks9cbpJTqzsk7+HCa8Mllp947vLMH+ZqGF20LUFfwxPnjQMJ20hEjEJfySOkbcuQCWv0ZwyDsbx/sVjMK6/HeNunicPKL/pSjpIZbDzhHx8fvoIzG+AmoEqk7V7QhUH1Uie1jI9E2gIRfBrdUQtGLseO2h0GY3LDYfyM+ZWzQ0sf1NYsBRTAbPscJQayw9bkYNdPUcNp8BndYgqdogqnlGb4IFMi5hMgWWS02FuVGC02lJdh4irAiHMkhd3OxwqY9MNGgqJiFNUDvGI4GzEhXVCWiRKk/yX5+C2rhqdOseL/f61OOHFbwsxA3nyuwWXjsWAJur5clG7t4kqblZVC3kfvV0xnj96CDa5eyFml7dA2O0F01CeZcYlYzC21CFElfnanTO0FVo441O256EAFtX5UR6w6aky04ikCSm7YblhVAE73taaZdOENinfMMnLKeImHgmrTroW1TArTjMv1laGyfmRIMxC9Dazqz2/lueIIxLzJXZ0FPK8VMUrAiYskUv0VFWcIOIIxubHMKiV6QjWIeI/Kn1oiLtgS7Td04ZUTc6oB47qIeasDuGDuT58ttCP2ZVhVIj09YXZowsUiJUNyrdiwkAHth/hxHYj3bjuk0q8Pa2ufUQshHrQloV488RhyR1r8cPSALa5d1EiZ5tmrtQUhULQVVdvgH98WoXr31rV9dF68l6X71eKf+4zANOFiFkZZdSm5OLhsB9b9HeolaGzCZrStNU+RC0eSd6MvmWfAAmYSlCyUi1uoLpFjBiikZgQXExFQDDNU0WYZMtJdRhayPmATfLJ2dSiUQ68aZof/C7nLZ0rEjogX9so8/EYzANGwZtvoMa3oE2FyieymR0odU+Uv9pD9OuC78Thz1GzDb/XJPb1RIviMzPGf4Q7imH57SBiLlI5rTICu93V0TRrFSQeRpltVCS1uDzVe7O9uPt/1YqAY1z8n3lEmcycTaU070/25slEKkIidbwtyHWf+ctwHD+5ILljLXjZCfe0onbl3PfOGomNRMGOvWVeot3X3vs2B2knThzpwu/nj8ZCL9R8rJl2TwTCUYz0RCTjJS+zjPpQGL9VR7WLootgXzGVL90LHEkaj0YQlCZuTFo8KeIlmhJsa8fWAWcG5GKiF+8PlP2RUMatwVsD17mP4Lsdw3j9p5OVK7E1MHZ2gGcYTpv8K6yioOOGSPQOgO9hs9ngcrnwh7TS6Wrpie4JPjKJeJgrghEFLZfHNUxUFYxKQ8LaJc5pCmZGP6nNJxUD5TVhHPzEUuz/78X4eGaD1PZiMFSbVLgkRCpUMhQ3/s19ZHBuHXkokRH5RTbsvUHzTXNm5pTx+fJwLbPE4z/XqaWSxg+VhOPw6a7AZsbsVSEsqg6jNL11XLNgslqtVslPPnem77Y+Chx2MNnYHGuNBzSaB3OM+oMT82wi4sVjjsHv98PrD4iyFeIUkGBTW1O0dqxZWIRRrcL47dmk8PA/apP2bGaTnNNJ8Pk5yIMpkieX6WIp7Ga03YEtyZVAtRRcq2RKowq1SyAJM5B8nHDeqzMasNU9ZXjrl/pk75xsHane+NP2/lyIk1EKpa24FA6bIA/V0og82U+XCWfXP3pT+V1KlXcWcpuoL4bvRYFzwdI1CZ5BsI/RFzV32+rPowpdQiAhNbSzA7msIaA7gp3To0QJxyIRNPj8a1wL7SbXjoDXTC6X1PpGy5VP2RL/tmfjv52HWhcvHler7vRUKPaQZGBLvDUoXghzFiQps+ma7JtikzU6m1UP/1CLwx9fihqGP5Ac03OLliH3PmKSEGgr2GKoU9SuM1FbNIUo8oaaCN4XMj5xc04JJUnURiK2CTl/9urEqDcmcVcv1xaYxIbJitr2zDaSAZAwNip2IBb193Alk12wzh8qJMwtHA6tGY6cEQLuCRAiph+c/faKqHow2kXE9aEoonRLpCG/WaNzGDI75Z7+pQ5nPLdMGF4u3Jw/Nt2QmxeU2LD3hq1HDJAMD5sgDxhuOXWe+KlOreI8abgQdlfdE3K/OZUJImaIXrpaHS2B17dI66a2q8/dBXCGttH5ZgSEUPoqj3QEJGG68aiGuVJGT4v7zRQ4wIzUQY9lhotNxsCWQVvPrtixLhyDOQ3L+vB0khxHd01bFsSpzy9PME8me6caIxTHnuM86Ee/chs4hO4JruTR3DuLCv54vk8NeT5m04I0uCdMKiqESI60zjjYuuGcSDGj+8h4SJ4LJbaIWmdPc0rLoFpiRIRyR0SjQsKthJv1MXCgFemDvNJz0TZ/KFrwcRihEHEX6UapYbojmHgnvLQCUSqybAYAyq3ackukMHmIE5PonmhONSbdE5x0/vjNhYhZSrqSOPJcDM0jsmVQLMcRQxRppHvcEylsUOyCJR5QUQAazYNJw4VvOTtaQEhYozG4ekii3GS6JZkp8LHb0l9mSv+AWEJXRauq1UWIlkrz6o4vqzFzoa99Mb/pgqjWohI79mohWqIp+LqHMHqiJbUrP3jy5zoML7Rhs2GuLrsngsn7MEOyYU98Py5f7mvOD55FcNHEDYvsCEUYq5rcqbEGFC9cd5Ez9XEBz1ydHa27QPJlavT0FGkrS80ciRUT5dRVpUYiHi4cWB+M49YvqqR5n0USJoQo9xznRnE7yL9M1O7/yvw4kcOfW1K7dron/AgJgXL5/K66J1wciyrgVbJiVDRgkwW+HJCixU47RnoM+EPhNg2yr4H2MJBx/kYcYRXypxOoMZgcTKOulb5uBsti8s+WYOZ6SlROXQETib5P1urPTq9HTUUEahB8NiG3O2LS+gM4msPbs7y4/P0KjO1nw+ThLahdaSL4aiN4e3Ya3BNSSxWxuSDIFi/yUTnKKqXEuxsjCqSStIURjGh/cQoUL9QNnLOaJNx4MEbWwD4EUeHt2tTzcSRf4s+2Nzmni2DFxHTi1hPtJvHICfdKazAHpW1kYoygvGhnwUTiOHjiv9PrsusXJoRsivvZsWc73RKv/dGA7xb4EIgYOI6j71oiK3mNp6bVYWiBFZu3RNjtgVx+eGEiGJJEnC2DUsu0qEfuQuamERuVuGAx6C/W8cUEs4blhmkRScYKZxsmMQ326bdvS1gSF41tz6ZO6CIoJlg86cLpqeCjW9rIW9PiuoCxLGhTvrzOggm1cRHg9Ucw+taFYlRiYtns5vTHcNS2RXjhmKHJHS1jQXUEm9y+AJGGKF48YyR2GunC0JvmieHI8zZ9ZMl9lyjh6qs3xL++r8FFL63o3NwTvhjuOnIwLtyxBD9XJTImG6mjbDfqxxalTmXQuQAOgf61KjEEOosWkpNgueGCmcXWmBq4kV0w9Q24Vy6ESS131bp9GPEYoiXDUOthfPoyKd6tlwOD43RNDvR3cBpaXltZY4fAFkK+x40Gw4rZtV3vx+oOkFY4+1piSf1W5pqYV+M3KiNOcB7ZzoK11Z/6A2/NbMDBjyxJ9NplE4EYXj1tBA6d2HbExM2fVeGq11ZKrgL7Ti7EeycPw9YPLsJPC6QgcPBGUwjJv3jacPx5lBtDb5yHeHOE3RZCcXx45kjsJor9+9UJNw4vkY26KhoNYPP+9i5VtOnG8oYAFnhN8DhyZymubIOvzeznfMHWWBi+1mZIywBoe2zJnjPLgWUBM0zm1jPCiJpw8hgrjrO/BdPSx9tmRcp9x0A0jPqn3Exkv9G56B01A1vQjIUNiUhY3jWbGq+rSBHxxoUG+rkcyb3rwzSrymfUxVydHlWXMiguY3TzZ5W46vU0zFjWEYis6FdgVVNeFtKPK2D871uzvKgS1etp0nl3zUcVWLgqpHLTKcRbdc0G+M/3tS2rXSH5/TYvwLsnDcefHlqMH+f7mifsliDP4pbnWvq3cShxW8SooOaM9UYSE5nQXmnTmbKtSDSIzUqscNlya5zo/BofVobsfXbKTL6zTcyN87BEgkGEpLBmk4hpcxRQG34Yw0pRmxQmrSIsZWe7IlxfcCfw6yVSeyT3twQxbMNTCu+Ws6WsucjkyQPtB11rHrVsElAjRZbPy+k9OWCUJtMTFDKzlBPDTyg2odCR9N82Ay42LCTQtTdKJciSWkmlbCdOOI59NvSsIWHCIiSbL2R5/SeVOP7+Mhz/+FIc/6RsTyzFwgqxqORQnWBdVFS8F8dOLoDZLfuYu00hv/1svh+BSBzHbdZKuFtLkAQeUmBDdSCORTUR2GNRDHUamFAEbC2tCM7HwULJfMgE1LU70SzMNMYVu1FgCfXZwR7MEXal0Gq5WG93IZ+Eyrl52rEp/WESMuE57dgMS/ti+psD3RKcxpPhfEXWOEbnGWreGrYgNipMzMtMYs5UuUkXEo9nSF63buSKiLtCnizoKTFdp2b8yjLk3oc3iZbg8zCeePZlY/GXfQYk3o/tGo64Y62RyjzZ9eS0OgzMs2LLES1HTwSEsN8Qwj5mcqEQtlyjI7kv92W43MR7FmLjOxdi1G0LsdEdC3HUf5fhzT8aMMIDbC6EzGi/jnJ8m0jmC/Mo92DCJiUu2OIB1YJJPmqfAbMkVW5yM3+6F2wdcPY1n8+HBq9PrTLCv8PSeiiwRLGBFHludPORkHMW8mwWk9HmHO9yNH1vkfXwG2Gu0v527D62+blU80XNPn7EYDx6/FB4GE4XaOKnkir+8wV+NerteCHZFpmQhP1zHQZ4LNiahN3KFJrNISbEHZJ7hERVe+UZFlaE8NKPtZjy8BLs/K/FWCpEvanU9FQn6Teq3KU4m8WC8SUORKN+LnqtodEiyC0kZrpw6r3SQg0ERBUbajoFiphcJeOE61GIOFXrtgAz/TBd4U8q7pRALMh2J12Ibok85YZoDaduXYRvzx+NrUYLYXOaudT7SuKE6pNqdzO6J1pQu0LoXyxMEPYJjCnujHRlRnCjIk+pc9n+N8uL7e4rw4/lQYzn5PlyqCOCu23kttrkys8bFVoRDCdmGusrYJ6k8rk7wtZ6IphOqS0SiYhC9sNljiuXReOGbi6B3Moy3VZUihAxP7r2CqnaSMXKZjM15N0Ob+fcEpMGOvCjkPFZu/dPePupavnuco2np9Wp+Yu3HUX3RDMvILlMwmb88dFC2BZ26qXLC5NnwSpRxAc+sRQrG6LYUGr4tDl4kq+Y6wWdiypy2Xd/OJh44D4C1ufMa4ohjY6BNq1cF/4APFYDQz25qYo57w6JuC2YGS1hdIE9aUKpBBgvZEdiywrEigeWOrBbC26JpjjrjZX452eVeHDKILx4yvBE5x6XaqJ7QtSuV7knRO22lJuKsOvVzG4Jwk4TXfJ2cs1Vq0K48N3VSigXJTsi0gGTNIvSNc90JjE034WhrriQcd8YBs13ZLg9pwLhGnMaHUeKjCNiMxwmzrKT3tZk18GOWEc7yp/ZLj9SM+F3ATy7Xjht66FOWLOVGkKE+2/sQV47qhu6FF78vQFXvLQCxz63DIdNKsDvl47FtuOkGhUyDtdF8PqMBhy1aQHsXEajuecXwv6yzI/6UBwn0J+cznfkpTxWvCjK/A8hZE6HmI6r8xpm+betUT25gjFFbvS3hRGIcJRZcmcvBV+PlS27LaxZXuS1N4FkHOIcHWLn/YWM09aaTANow4YRWzPPTGsw26XZrUJFkjs6A55b4QdGFNuw2RBJjQ52ZnUYimFMOJizp7UDXwiBVldH1Iz1z39bgwm3L0CFL4pvzxmFi/YuVe6I+2Q/43xH9xM5yjA8quXGWzCO0IoQnpter9whpnRXOFKfGFIq6Sahy5v1S1evzvqVIVIM5+sp2LjEg3xzsE+EtTF/67hegCjiXBn52BPBELd4NIoiaZDTV5xLEJkrGqvtitbsUF5uqUe68AIs58qgBEdzIvVsTL0oLMPY3vbgGa6VR9LkO+ZZMUcIdZt7y3D/NzW484CBeO28UTiByyIJztmuGGcLOZ+7R//1t/0HYPuRLtRSxlDOpDvTrWZ8uyTRacVxKF1sqMgjGrArG0j3g2YOVDjj+7lgNwLgzIC9mYxJvSw3lEF2Gwe2dDHDOwFpDIoQad+WWI82BHBsRjs2U7RO/sgOIlJxU8CwH7wbkrFZkHIsprgo4rYrWZMvHDGmV0XhtHdtuCk7HhhKEg3HMOa2Bainiszk5D+iuscOsOPpo4ZgvHyqXsfGzy9fw/JQb8xswJmvrBC7kB2N04NEKpZ1xDZFuOuAARgmaplTeOY7za3S1vyqME5+aQW+ntfBEXbtgVQsGwx2Ys5Fo1HmM3V56f1QLIaB9jDGFrmSe3oOQlKwfq0MIG7xSOuADc/eCZabjUS7FNniKl42W2BxIVFcPTOOFdKabaNTXxQncNRYDw52fgiUPwmjjbhYXtxwDERoxA1yM2lldnKIc3vACsxms8LlcmNGbWL0XS40AkkxdsOPyVy+vQ0xZIrEYsbPFSFYrK42fto6mKmMXuOQzes+rsT1b65U6jNj4MMywkGYqjTfoprfjSsSKinOJVzDKl8NYWrh7QJxNaquv8cil2w5BXg9+tIrfTHEQyINSMKN7pcWCBGPHeTE3ItHY7HfhAoRx50lYj4vl7QfkxfD4LyWJxvJZdBX/KvURiabR8Vh5orSSSdYWDkxPEUMl0jienXZjHJRI+vaeTuuyh002P5vec6EdSDvZoo1JL9kDoqIrULEbjf+ECLm1AG5QMRs0ZVYg9iopO2AApO8hDG9wo+wyd1l/wprd4528Zjj2OSuMpStkGZMo6HHGQELJ625OfB9mCNtvRdrkfZ6U/g6mcplUeTbbODBd2eNxNx6oFaag10j4qBUjBYUODhGtWfCK5XJb1UhWIWMOUy0hZzu0Vijiu2iihuyp4pTaK+JrU37jp+RSZCIHXYbbE4XZtSwJdj9RNxRIaRY0sMRXZz4uYsgaZRJBeiwmvHkEYMTV2+JJNMFJjgVb3MbH0j+bxPMtebOb27LZA5H49iWq0YLulqrs26xmuJwc2aZHow8KWATS+yIhBOj7zKY+t0GFpMlwr9xwyzNa7oIs0NgKfBu7dnWormjzW3Zg9ViURGl7DbKYoOiVZjEYgvauVKRIuICu0WIuOshQzydvEs19+fRbtx7uJAxB0+QFTRaB+tBybQTtihUQSc0qq5kB4dVc9yJtRf0xhc47BhfbEUo5OuVZMwKl/2/i4WMrVYbHA5H1sm4J4OuHIukGzs+2brIBfuISfl1mEUIWdvnnlWltFAIwIxoWuowitDqELBUjOq87Ypx4yFCxlydlCmk0TxoOSKBp0wuwJZDnVjsTezuLFihRuMxFDlywSTTg2KXo1eTMRtbq4PAioAUYCFih1Q+mozbRsItIWklRs8+lVyRHdF4XHWRtdffr57bKaztsRhqpE86wGiN5X5gmWxX7doPDx07RO1bb9IdjSQJxzCg1IGHDhqgkogVWVf99SaDcZUZ7CztBpSsIePe6aZgnlPArFJk7ITTmVDGmpCbB9PFYrHALpVWhVRiPjGK7vYNE+TeuAihwvaMbU5izS9LHKKJY+kb0cTp6crFqNjcOnPbYnx5zihsPYaT7khqMepAI4GGGAYV2/DeqcMxuMCGOXVdJxhWqJwMJc/eu4iYSJCxJaGMc6QZmi7wXUgki6TMUMTY7Q7kedxqsIcm5HWRImGP2yWNSZOqwLoqXtIF5hI9DEXO9pc/FTXBP/yRKKZXReC0u+Ql1bG0gB4JhudsUph4wEe/r8E9X9Zg5jKpwliSOPyPKZgLVVm2QJ85ncDysdfEfPz78MEYLWTM0BtftGsGxVMDUU4+H8Gowp4XP9xe1ARDmFkTFbLyqMUlaFu9BXwX+hi5uvPIPPoaDUTCETUFJEeRpZDNMLdcQaoy4gAYp8spLUgT5op4obbLFSLm4rguUwCb9m/fPDjEGiImfq/0wW+40z5JDPmWlxwqz8UVKRiP++Ecnxps8c3iABbXRlHPTj3+cM3T9FJI4SnOs2D7ES6c8qcitc4eBzfNqkl4bugr7ApYNjml5OR+VrjFWHszaoJhIeMIbDaxWXnx3mY6FDF06Q1yAgOk3FhNBuLSao1EYtJ6ja0h5UZFuNeClQ43RkcwVM1ksaI6LC1ubyJSIldImOUvEI5ihCeC4fntF0LrEPEqXxDzGsxw0/md5rzl5VjL07A40GR4o8qi0hvFioaomgEtKNaXI2madjBN3XYzNuxvRzHnqhAwbIk+QSId9V+E0RImPyb19yT39G5wVeg/pESarR7YpDT2Nk5KlRtGQZWIQubmlhZvwqcoRzk9QS9752bBsqGG/5lQL8pllTSo2ZfCPbnUmF4rhGwihDrhmiAYS/xzRUBqG0/GXk4ZlvzDy9O48kW05cnmkY0k3duamY3Bd47KVisGVCOGxDnqmRZdVcEp0Aj84ZAaHFDqbufop14AnzTbZ0ipNCxu2C30pyYP9CLwndhBSeJhuSEZcySrKjOS77lERpkAy4lPCJiuO8bYM4tzRQU3Bt0STvixWSmVZvsfcB0iJhbXBVAesMFlt2bcoHl9Nq7UbfiPPHcvt6c1lQzfM92GRGO1xH3YQoygr/kP6RefURVE1OSCw2rplWScArsY+HrqFflPHyo3uaaAGyMhhBKj6YZ0cFqB9Yg4EouJKg6qIaV9qyj3bCSMIIyxefEeO7dEVxEW251R6UcALrikWdibyVgjNxGJ+LFlqUOtx9gRsIJZB7zAYJcJwT4wOXdvggpZM0UwyNN3XBJNYRfb3aw0MZ8xlYm2X41sgpP8FNm5YnPHSJhYj4iJoflO2BDSI5N7CEg4oUgIw/Is8nffZh8uO7SpkPEAexi+UCi5V0Mjs2Cxi8XCGEjnfSfQLBFzfoIReWYE+sj6YT0dnJ6wwBrFwD6shteFCRuWeDDCHRNlHEi5UTU0MoaIlME8awzFTntyT8fQLBET9DPmWcLqBrmEtiaw7nMQholGgxhTQAPQdNMYIwvd2LDAhGDI362TwVDMJCOvWsWa3wno3+bfBcUijGyJ7z0BfIf8QnnuIsDl7vhzs1VvF1Nuq3XP+zBdbPLbppyQSsd1tjbSvivgtcPRMIZyGstOWlmTV2gME8YWOhCJJoNcuxnMUCY8M4mJrztiEgbAydMHOw3k9+A5hzOJgR4nJpZYEI94EY5nf+kl2qk5SS7cWrRbeS6HM/EbPiOJKBQI4oWH/4vlS5Ypm8918LmdLuDFR57BSXvvhxceeQx5yWUl20p3kiXJm4NVVpSvQjQSV9+bnsf0I8G784DaqjpUrqzikn/r/I5plUrv1KYmIcwQZ7B/xm2Oor9LbtRJtELEnH7QpkbDBSLd3/HhkQz94+dfcPROf8I3H3+qat2+DsYsOhDE6KK+GSXRXhQ5HZhc6lTL1mR7hWiSySuPP4Jjd9ke7774EgpF4TYHEtZdf79KfrcdlpYtQKHY9+L5c3HNmSfgu88+UPaf62CZfPzue3DD+adi3CYbIU9enoP/8goSlVFLlRCPxWNhXHPWuThyx0k4aqeJOHircXjk9nsVsafyi+fnS3rOnzkXp+2/H47YYYLaLjv5aKm4OPdEQqxdc+bpmLL1JByw2cY4YHJi+/jN1zLCGXy2cCSMIVzhpwuG1SoREyMLXHCbQsoP2Z1c7HAAbzz7KP745Ue8/PiDbTZd0oLufOF2IBwJYMMiO8yUExqtgjMMTi51o581lNVOPA6uWrpwHn7/6Vs8dteNCPoTxNMYJJuyucvxxD23yO++g8/bIE1dYOwmE/HYe19jtwMPQ0Mz63C2We6bO94Om27rus0dp+IM+A0888AdOPHcy3D3/XfjoGMPA5P6H+dfhNeffqJFIuS5tdV1ooJj+Ptd/8IzH3+Fk8+/HLdfcQFee+q/yEueRxU897e5OGbnrTBgyHA89Opb+NdrH+HAY05GODmBdzwGfPvp+9hg/KY46fzzcdRp5+DIU8/GqA02Vs+Sbqh5JczhLvfPrBdH3Bz8ooh/qQzDYe+e2GJOmVBX24Ajtp+Ag48/HS/85x688OVvGD56KEJBqSnZNJBMokE3RVQMuq5GlIlkJvmqvjZhSHxrztlMxUIjl1dUBlFYIu/rTdSsqnko1+fGY6zZVQLIubyGl4tDc7hTlhOF9/aFwhjliWG4VJQaHcOSej+W+Exw2FzgGphtl4DOo7gfcL0Q0+vPPCL3MXDTwy9gn8P2WYdYS+Q3155zKT5+62WEg0Hc99JUbLbN5ggLcQwR+6wKSH6LTdIG+axsmjsk22Ni2yT1aFhssSGxnxv/Znmgbfrkb6pSNs/doqqVvQp4Lf4uKnafKg8sP045n9el7YfluiwLqeNuT8J9wjKVULFyDSkD6lw5zy5lZrOiPFx+6wO44JyTsUp+x4poY7sDp13yd9xy89VqljRWRs1pB5YvlmUO6S6RZzliz/1RL4X3lW++Uc/qkfsftdNOGDF2HB567gk0SPrw3fguqTJbX+vFwVuMwb0vvIs999gaXjlOBOSeLMd8l3QhUQ5DakKz/l0cydpMcqwPTh6zQaEFgbBYRBpfpL2gAX385quS4XGcc+WVYmR5eO+lZ5RhEGy2ffjGu7jq/87DldxOP08M+xLcevn1eOzOB5Avv3v9mZfw3L+fUIZE0I9UuWo1bvvb9Vi+dJkyQi7ceOeVN4o6WYD3X3lbmom74pO33lbNRI8Y9qtPPo+/7L0fTth9T/z3wcch9gVz56JVOg1mfkCUQ4ktrEm4kxhR4MbGhWYhIZ+K/Uxn4WwOUWG7wcNHYse9DsBT992yDgmRPFYu9+HD11/E/kedKIRTJ8RiUSLB1+DDtWKfM6fPUgRLAUDXxjxpml/91/Nx5A474IyDDxMCfw8lYp8/f/09HvjHnULy9bj8L2fg1P32F9LzKxHSUF+Pu666EcfvtgeOF/t9+Lb7hUhjqjwokpXzyxeV49qzLlTX/eshR+CLqR+vKWO874yff8Plp5yJI+T4mVOOkDL5viJPPtvC2fNx9ZnnSpqG8dZzj+P8887Dm/99WVVCZmH1Lz98R+379tP/qfLcHFhp+IWoQ0Iz8khSeThERRep9HKJqf/8za+Y8/s0XHTj3WpEruqok7zjOQQJOSA1VlgY1yUFVnhXVWAUYqzU0krCstFLUGiNdJmEiXYRMTHA7cRwt6FGb2XacNeB3Is172tP/hs77ztFyMeCvQ45Wpo6j6hajpnEDKivrsKSsvnKv7Z65SL89sM3YmzXSSEQ0hJDeVXO/+9Dd61RzSTRipXL8Z9brxMiLlPGFJba7V+3XI27/n6xFJjbUNy/RGrnmJoH46aLL8Etl5yFzbf7E7baaXvcceX5uOXSixVBZwtMd2a+wwhg43asDKvRMlh4Jpc64DT8avBHpgUGbeuUC6/CtG/+J7Y5R4gisT9fiIzN9oLiYuy6/yGi2kgfokjF5vwNDco+586YruyW/tEPXn0XR+2wKZYvKcPehx6C0kFD5JpfIk+OT/vmC9xz7SW48YK/olzKQkFRMSxC6CuXrcIxf94Sn77zulQGe2CrHbfDI3f8A2ceureo37BSmkvmLxGB8ScsW1yGfQ8/RJ6rCL98+5U6ny6Fd154AyfssY2QZR32k+PF/YtxzhH74t+33A6p14Q8Q0Lk80XRGqitqsTi+YtQU1kp11soqjUmZFiDRbLPK01SltemYGXAsswKwSNp8vFH32H691/hL+dfjphkD8vrt59OxdiNJ2Dg4CI8//jL+NdN92D6d9NVGeQ1VfkQxqWgmvXrz/jxm5/RIAqZrV4qeN4jbZB7RSNBjFTRSl1Hu1wTjTGryofqqCNrQ0hpgAvnLMKUrcbi6Y9/wg47b46ff5yLw7fdCM988jO22mGLNc0yu9TuHIdeINuxBx+pjPrx999Stc0p+08RY6jCi19+qZqFLAgzfpohTZ1JePLD77DD7ttgZbkXe08YggGDh8rvfsLAgR41Sc/Hb36Ov07ZFe/9vhTbTxymJiZ6/ZOfcKI0fd6evgijxo1UzZ5MgjwRlQSPiYrbrL+zQzM7abQMmv+CWj9WBC1wigExb9Np1nRNXH3mhaJaX8E35Utx6DbbY4yQyZ0iJOpqE263fSaMxakXX40tttsJU7Yeh+e/+FUq+01RNmc19tpkIG578lUcfuKhWFZehz02HIIjRJXe8uAdCMv12TSn/dOP+sTdD+Pmi87A+dffjkuuuYSLgqsyetoBUxRJvvvrDLBjn+84c9YK7D1+CC6/7SFceumZuOaqm/H43TdilihoeSQuGqPcDiSwhto67LbBQJxywRW45tZrQVcr9cxD9z6Gf1xwGt6ZvhgbThqhCHOr0kKcf93tuOii/0OFPCCV/TYDB+K4sy7CdddfjmWiUJtzEbD8/vrDr3K9U4TUA6iurMI/pAU75fD9sLJC0rE/8LdTz1IEWzposBJRRjyKWb/9itMv/jsuuul65VKZ8/tcUfO7K7VPZcz3P+aM83DuNddBxLpKr66Cz85O3wH2EDYoTtaoXUQzdVPr2LjEhTxzEEFpHmdDGTOD3nz2cYybsCl223Vz9cQ7brMhJm21LV554l+qpuRzBKU5Uy9NEE6kc/s/H8DXn0zFPx9/Wvmj2pv2LIBBkdkHH3eqImGp0BUB0ndHZ39t1VK88OZnePHdz6S2F+sQ/P7jd2tUdqbAZ6Brj+PYJ5TYNQmnEezpHieFiTPWRcO+zIW4CSPwulTF7734jCjaehRT+b35rrKlQ044ToivmR65JNxy7ufvvSuXieOsq25CrTTHRVeoZjdbjHzkaCQiytCMQ048XR1ns3yVMN93n76PUy/6u/ITV4hNr5LzNtxkMHbZbwo+ev0FRejjxk8U2w/gifseR2V9TBEwN/p+v//icyG9OI4VMq2W60rjE6uFpA845mQ57sY3n7yvVuSpr42qio1lSOoY1WJlnwz3haSAcl9LLgL6nUtKB+CAo07GlOP/gl32PRD/+ef1+Oj9r5RCJqHWyY3/mPYDdtzzALzx0w9495dpuPXxV/Dw7Tfgq48S6n3wiFF46avf8caP8/DWtFm44IbbpGV8PR676860RU2o6XyNIEanceGFDhOxSdoPE/q51VRvQWn2Z8Rok2Bzg36jj998UUi2BhedcTouOP40XCCfNN7P3nkNFatCys/GjKK/avqPs3H7Fefijqdfw8AhRYqgFfiDdoCGXCwGwcmmmTrsxFu1bAlWLy/HRccdgav/ejyuOO143CQ1/tCRY6QicKSllm0JTF6SMJcG4nptXNFYI/0Y4HFKS8MBh3JVCDVJwqfbtKlcdz9wfxT1L8XrTz8Gj9jXE/fchH2POA5Dimxia6TE5kEVO2v6T+g/cJAQikMRWgop06YKtDuccElzj+qQanvlsqWquU4fdWMS5Cml0vJbvnQRpJGLvQ89CBfdeAfuuvoiUcqj8fCt96gLu4Tc5s/8De78fHjy8lV5IORWci8L3J485QbpMJE0AZ9t0NDB+L/Lz8XZf78U9z/zKLbYfhdccOzBUvZ9iugtIq8piE489zSl1muF2Q854RCMHLshpr7ynFLfdqltivsXSQvBI8Q+EGeddxqOkxbJc/++RyqmeLNukY6A6ReMBDG20KZGIKcLnboSH2DTUiFjMdpMKmO6D6Z984OKp5y4xTZYsbRCVECFqIkKjN98a6ltq/HlB1NVhwId9+GQgbOlKXPkqediv0P3hBxex/BIso2flRnbHGjQCnIS05p+r4lbboPPFy7F278sUttbPy/E6z/Mxc77HtxsaFE6wEflwMYUCRc7u94poNEy2NLYfIAHw1xRBKQpFREiSqdtU7nm5QHH/vVCvPb0w/jy+9nSlP5FhXv5k2TaEnjYI2QYkuY2K/7Wniu1cgc/XMmeMSpSKtzGoHItKCpJRAcJEZ555cV4Z/p8HH/W+bj3uqtw2V+OhUVuXFjcT6ltXnfNfeVTRTiIlC3q1189X1fA66oIJymzVPpeqZOmnHCakHA1FsyeB1r+0JGjRWyJrJXfsqJhMeV9C4pL4GXTQMBKifUZo0FI7tRh48ZPEi6oRMAX7RIR8xnpkii1x9DPld6y2OnHskquck0mtzmQsSB5NqVeeux+SchN8Zio4sfeewOPvvsmHpfPJ157HptvuxNeePhelTEFooZvuugClSm3PnqfckewKULnP59tiDRZ6FdihwBdCYVOxm7OVvdpLQ6XGbfFDrsk4jtFOZQOsklta5Pa1iY1r0WOZ+DFBcowxarC0lwmCXPRTI1swIRRhW5MKrHCEvOJbUuJTmMWe8WGDj3xVCGJIC4/5SjsuNeBmLDFaGldJn/QAihE/7TznqhatVJs8Rf0L06ID4oVCpHmiJCENHzMUAwaNgIfSHnJF93BKAl2boXk2HeffoDtd99PXYeahBXFoKH9cY0Q8g0PPYUPX38BZeV+bLvrXvCLnP/l2/+hv5Qp/r6kCJj3xwzUCVHyuRj33BJiwpo2u0Na0RQ/CbJsDH7nNdmpxueju7FQvi+cPVMdHzh0KAJSoLfddR9VcS1bVAupP9QgmKCk56L5c0Q976oqnsbXYTnnPb/97EOM3XiinGNX5N0Z0AS4+o3dCGJccfp9kV2oHyTzpColGRdZgvClOZqCCbq0rBbvvfxfTDn+1MTKFlJT0g9MpUsFcdhfzsTPX3+OpQur8P7rn+DFR+7DbgcciqmvvY1Xn3oNbz77Gj5/7xNVe+52wGHyu/kqvKd69XK8+9aHeOzOf6h7ranpxSJY80elak69C+MTDzvpL5KxLpw5ZS8pBL9j5dLl+Oy9z/CPCy5Xw1C7Uss2B96bYVXxiA+b9hPS1yScdRQ67dhcWn2ltjD8oUBiVZlO2DdPiYg0CyZjrEiOw0YWKntkk/+Esy9R6o1MyugCImWPqX50qs6A/LnD7jtihz32k1bfXnjvzfdRtXoFvv/8W7zz4mtKMdJ2qXJTIDE5XSZcfNM9eEOa+reL7a9aVo6yeXNx/tHHKgI85aKL1b3eevY5PH3/w1hStgw/zl2Ij958CSPGbCgq3IaJW43DPocfh4tPOATvSbmprliBLz/5CucdtR/2O/JEbLXj5sofTATkPfkcfO9UfD9dePQjz1aRFNWK9BuDLsX3XnoJD918JxbNmy8t3qV44blXce3ZJ+Kk8y7D8NGlqJNW5w577IjNttlRvf+MaTNQNn8eLjrhKCHkQlHPx6n3ePfFF/GfW+9FedkiLFkwD9dcei0+fO0FnH/tLck0Td60g6Cwi4QD2LjYkVaXRApdviLV5IT+Hgx2ROBjL6XsYyZ0FawV//jlJ4zZaDx2P+jwNbGCKdB3vMu+B2OTzbbEt1KzM66Yv333xadxw/nn4u6rL1IbR/rw3J32/jMuuP42PHH3zTh02y3xyO23iRFeiQ0nTobD5VLNIsY78ntxv1L1nWCTbcDgfnji/f/JvjBO3nt3HLPzlrj10nOEnB3wFDg7nbnNgcbCuaBtcb+KjsjXPuFuA6fU5CxumxSaYYp5Vcuvo8YdpcocPhIbbbrFGjvxC2mx2b3vEcdj0z/9SVX2JE23J1+FZzldbmV/VptNfWcrj8Kc++569hXscdChuPL0v+CI7Sfj2rNOxMryRaLegX4DBmGTyVuJDa1du49uswOPOQQ3/ee/Ik4exlE7bYVT9tlTBE0lnvn4W5QOLFEVgV0qnsfuvAlH77QFTtxzD6WAH3z1PWmV2lRZu/nhJ3HQsSfh72ecisO3m4y/nXoy9pxyOG559CnVD8Pn533Hy/37DRyk3pvPwI2+5+WLF8rzbqfK6npxxPKbktJ+qrL4yz474dhdtsI911ylBoFc+s9bVfpQyfL9733+dVHtw3DKvnvixN13UeF0T3zwPyHzhF/c6XZJmb8dx8g1TtprF/zv/bfwwMvvYtcD9lA++s6AZTIglemYAlPG5nTpcPhaa1jeEMDCBpHvdpfUGl1fyDEmqW+zcww3a/tEgqTAa7OZQ89AMCA1sPxhayGkjvt4LmvelcsaUFddKbXsaBXuxqiKxuewsuP3xvv4N2t2fpaXrVBhcez8KCw2p90/zI4iDtZgnDCJQCM3EBWmKasLYFXQDJvV2aGFSml73EhWBM9jBzOVIfsFqRxTYJanfkc0tkduFChscq9a7pWW3SqUDh4iTW6XIneWhcb3WQPZRzcdO7iWL1okZOXBsFGlitxSSpbXDPhjWLF0saoQho4sVfORB5ICiB1/LAOrl/tRuWoF+g8aLALFrSIzGpfNpuWHnzyvtiqgOtgZGmppspQV/2Z0FIl2xZJlUukkBsAUlpjglfLF5+T1+Tu6HNhaXrJglXyPY8TYwcqlsu57xKVyWiy/c8h7DFFpxnfvDHhfxpmX2sPYSCrlTCGtREzUBcOYUxtG1OSEs4uxxkwEum+TLbZmoTJePpUdJI1hHcjBxoZJg2KnRSqmkH+r48nn5HcWjOaem89DI+Anja+z/qamUNcTq+fcEcM9JjW/h0Zuolbse0FdGAHDDpcYA02uLRNXdixbU4LkvnXsTL4rIm5kVy3ZY2oIPsmLSpBo6T4p8Fq0fx6n/Ta9Jq/H67Z0nGDlQQHEe/LeTdGUiFPgdXmM5a656xI8zt/xHVorXzzO92B6NXe91HtwP6/TUnq0Bd6HwQj55gAmSqu/K5P6tIW0EzERlRScWxtAVdgqZOzM+Hj+Hg2V2RHYjRA2KLKjqJMTS2tkD1Rii+uDWEYVanH0+sVK+yLIueynUS7CUndG/MKNkREiTmGVL4iyhhjiZoea/Uob61owo9kLG44EMdARx9giTkCT2czWSC+4jH9ZfQi1ESvsIjgY66ptvOdDlU32zsZ8mNzfKRVtk97FDCCjREyEpQ2zsC6EylDHfWu9Ecxk+t6C0qZymcIYXaCjIno6VvuDWNwQRcgQwSFtZlanmo97JlIkbAgJb9rPoSY8ywYyTsQpVAdCWNQQgT9ukxrG0efcFcxgvm8oGoUpHsIQtwkjCpyyX6vg3oBYPI4l9UGsYJyZhSrKIoVLE3JPQoKE45KZfkzKIgkTWSPiBAws9waxzBcT9WAXY7X3ekJeS8AxkcIhlDoNjMinXzHzzR2N7INzdy9pCKNKWoAWiwN2q7lPtwB7ClhO1ZSoQsKb9nfCleXymWUiToDqYYU3JOohLoRsE2PluO3e5bJgxtIFkVDAYfR3GBiWzwl7slfLanQf6kJhRcjKfywtwL7ukstlsKxyjm8nApjQz6n6s7KNbiHiFEjIq/wh2eLwxSyiIOywi0ROqcieBnls9Y8KRYtGYEME/Z0mDPbYNAH3UVQFQkLIUfjiVtikBWjrZYKjp4Ncw9j9ImsYm3Rj7H63EvFaGGKwYSHkKOoiJsSFwqwWq2wmRW65bLgp8mUna0TUrxGPwGONo9RpxgC3FDwGNWr0cRhYLYJjmTcmgoMRFvZe1wLsaWC5ZXhxIBzEYGcM44rdyb3dgxwh4rVgU74iEEF1KA5vVIxVSNlCUhbD5cgh9n509wMrxS6f9OtHY5yDNQqHOYZiuwmlLk5VSfXbfZmqkaswUCGEXE5CpkKWFqB2WWQfLL9c6SYW9WN0vhlDuLxJNyPniLgx/JEoaoJR1IZJykJ6Boc7W6T5wE3UsiSoorsMkjPvQTCVVGhhPKY2C2JwmuMosptR7LSg0GGV3+oICI32QBSyL4Tl/pjYNdenIyGbpTBmzo41kpDyHAhH4DaHsGGRA3lc8TQHkNNE3BiRWAwN4SjqhZQbInEEYiYhZrMYLn3KZnCuYU5AROJM0WGKRNsDlQjJgsBOtrgkS9yICwGL7DVIvHFRvQY8NhMKhXzz7Va4bXQ7dOAmGhrrwEBNIIxlPrrkxHbNjCRKzK2iVXJ6wTRVA6joinBxAJVb9uVO2e0xRNwU7OgLRGOimuPwR0nMksgxSWx5m5hhEhKlWyOR0OpTWbd84a7UJyGvz19yJ2md4XRWkSbCtXBKs9FlNcFtNSvSZUfi2hM1NNKHBlFpK7xhVIXFdk02UciMJFLmqdEFpIp7IBIWFcwBVHZpwebeNAI9loibB1WsoaIWIkLUyocrn1F5Q74lj6Ve1pKsDWnsVvmbrg76oW2irPm3JlyN7gD7SFb5I6gIUlz0/Eii7oIiYPknLGLNiIUw1A2MKHDllApujF5GxBoavQMsltXBMFYykiipkhPx9jyo/tdoAeTasLSSY0LAJfa4WvI+18NHNRFraOQ4OCE9I4mqQnTD0Zdsg81qVSuWa1JOYK0CThBwsS2O4fm2HrPYriZiDY0eAwP1oSgqVXingRCjiEjKKopIHe5zpEz1y8515YKIh1BoMzAsz9bjppPVRKyh0QPBiJ46IeWqIF0XQspxiyhCxiYnlHJv9imrd5PPaMxAJMYRrFGUOKBGsOZKOFpHoYlYQ6OHg0WYURfVKuYeKrQzDq4wzoFQ7HxO/S7x2ROR6mOLxhnKGhXiisBtiaN/cgSrvYePYNVErKHRq2CoCWzqwqKUQ4y5B0J0nsIqxGxRxMygIEVsUvJztfAr3pV/6HZgFBSX5IcRhUvIt8RhRn+Xtceq3+agiVhDoxeDA5K84RjqhZgbIgb8UboxzKKYGRJH1SyKmQOiUuSsTsouQafuy3uSeDlGgBsHUlkRg8dqoEjIt8hB8uXMaKkH7T3QRKyh0adgIBiNwSfkzBGqJOYgfa1CztLgl+Mc2cfpA0jOnN8lOZVAkvvWocAmzJH6uh5NJneo4/IPP7nFhXVTI1hJuqwebGYDbguQZzMh326RTwv6wsRZmog1NPo8RCVH40LIMQT4SdXMkarCj9w4IGrtSNXkp2LmxOyICaz9K4EUrRhJ33RiBCtHr5pMRqPRq7JZTXBZOHrVDJca4p10avchaCLW0NBoEaQHNTpV1GtU/W0gJhvnbeB3UnFC1SZPSEJNyiWfdHkwioMjVhMjVxOjWPmpJ8laC03EGhoaGt0MXSVpaGhodDM0EWtoaGh0MzQRa2hoaHQzNBFraGhodDM0EWtoaGh0MzQRa2hoaHQzNBFraGhodDM0EWtoaGh0MzQRa2hoaHQzNBFraGhodDM0EWtoaGh0MzQRa2hoaHQzNBFraGhodDM0EWtoaGh0MzQRZwC//PILfvjhh+Q3DY3cRk1NDSoqKpLfNLoDWZ2P+LzzzsOECRNwxhlnJPf0Tuyxxx7KuH/++efkHo2egmAwiNmzZ6OkpAQjRoxI7l0f0WgUM2bMwIABAzBkyBC17/TTT4fL5cJ9992nvvcE3HTTTbj33nsxePBgfPPNN/B4PMkjrWPp0qWKvMPhcHJPAhtttBGKi4uT33o2rrvuOpXHr7zySnJPBkEizgZ+/PFHEr7Rr18/IxAIJPf2ThxwwAHGDjvskPym0ZMgBU/ZqZCr4fP5knvXx0MPPaR+d/nllyf3GMaUKVOM448/Pvkt9zF16lT1Du+++66xcOFCIxKJqG3RokVGLBZL/qp5nHDCCepcqbAMIV61FRUVGe+8807yF+0DuWDx4sXJb7mFY445xhg1alTyW2aRNdfEgw8+CCEoFBYW4s0330zu7Z1ILL7YdA0vjZ4Crmy8fPlyvPzyy8k960JICo888gisVqtaSiiF119/Hc8880zyW+7jvffew4Ybboj99tsPo0ePVu9zxx13qBYd06A1NDQ0YLPNNsP8+fPX2fbcc8/kL9qHc845B0LqyW+5BafT2e4WQleRFSIWZaGMlFJ/n332wb/+9a/kkQTYxHnqqafW2V599VU8//zzkBoTq1atwmuvvbZeM+j999/H77//nvwGfP311xDlrc7hvf7zn/8kjyT8YHfeeadyi/C6rUFUgbpfbW2tuv7FF1+8jpuBz/vAAw+opug///lPLFmyJHmkdXzyySc499xzcfXVV2PevHnJvWvBJtCZZ56pjmu3RveAxOp2u7HzzjvjnnvuSe5dF7RN2gab4XRltAe0EVGdyW8JNCZxHm96rcrKSuUmCYVCyT3rg+eVlZUlv60PUZvNHue9/X6/EgzxeFx957ZixQpVXlP7WoPD4VBuCLpxuElrF3a7PXl07fvx+WnvTcsv78EKj+/d0v2YBiz/jUG3yIIFC5LfWkfja/I8vltjkBeYxk33twW+T3V1dfLbuuB7zpkzB1VVVck97YA8aMYhKkE1YYivvvqKKWMsW7ZMfSemT59ubLDBBmu2TTfdVP1GDN2QTDReeukl9X316tXJMxIQdW389a9/TX4zjF122cXYYostjKOPPtoYM2aMceyxx6r9kijG8OHDjR133FHtGzRokHHggQe22PySBFb3O+usswyp9dUz8R0IPn9paamx7bbbqmtts802hhRc44MPPlDHCV6b92oMIWDVfOOzieIwpKY1vvjiC3VMDNHYf//91zzz7rvvrn6nkX1IxWuIGlQ2R/tK5VFj0Makojc233xzla8pnHrqqcbJJ5+c/JbAp59+amy55ZbG4MGDld3xbyFAQxSlMXHiROPtt982DjvsMGVvTz/9tDqnvLxcubdGjBihbI2ft912mzqWwq+//qpsbNiwYcaAAQOM7bfffh2Xn6hdVY6GDh2qjtOOP/vss+RRQ9kYbVBUsLoGXSpHHnmkkZeXZ1gsFrWPdtwSDj74YGX7LUEEinoHEWDqnfv376+e5cMPP1THafNbbbWV4XK5DCFvdT8RSerYpZdeqlwfIpjUcaYzIRWgeiemB12c3M/8agl0s/Aezz77rCECR6XxLbfcoo4JASvXQyqN+Wx/+9vf1LEU/vKXvxgTJkxIfkuArpdNNtnEGDhwoMpPEWnJIwmIQFN8wTTnb5gO7UFWiJj+0lNOOUX9TfLjA956663qe3Og8Utta8yaNUt9TxGxKFH1PQUm4oUXXpj8ZhhHHXWU+h0TPgVmBhNO1Gtyj2GImjFsNpvx3HPPJfesCx6nkY4dO9aQ5lZyr2HU19erwinNqeSeBEjY+fn5qnARTYmY96GxiXpJ7jGM888/3xg3bpz6m4WGz80KIAWv15v8SyObYMFmXsydO1eR6l577ZU8ksAPP/ygyEGUmipwjYlYVPQ6+Z4SHSQWUaWGKDLjhRdeUHkrakkR3vjx440bbrjBkNaS8s3S9uiXlJaj8ccffxiiBpU98zrSolPXpe+axHHiiSeqa/I82ljK/kj+/P3NN9+85vjZZ59tiPpV1yS+/PJLY++991bXYWXw3XffGd9//71xyCGHKNLkPv6mJbDyYEXy22+/rdkoeFKg75zPwGfkMT4Hr81yUldXp3iAz0ky33jjjRXB/fTTT+rck046SaUxiZLPIS1dtZ/XvO+++9S1mJ4UQ5MnT1bHmoMoUyV+KHCuuOIK4+OPP1bPSHHHyoHbtGnTVBq/9dZbqlK66KKLkmevT8RMD6bhgw8+qM5h/pInUuTOd+A785l5/JtvvllHoLWGjBMxHfEkvcaERsNj4jQHGhPJjgmewssvv6xesC0iPuigg9aQWwosODyXCmLlypWGNIVUIdh6662Nww8/PPmrdcHakufceOONyT0JvPLKK6rwpAw+BRZK/p6ESjQl4p122kkpXV6X95fm35pM47OwEPBv1vga3YsUEaeIhX+z0KdAJZhqrbCV1ZiISWxs7aRA9UbCag5s3fHaJKrGoPJlC6tpa+36669X5YL7acc896OPPkoeXRdUv83ZNgUJSS4FCgrua4yrrrrKGDlyZPJby2AlxZYDn6mgoEARLIkthSuvvFKJD9p3CuQCPndjZc7n/POf/5z8lgCVMa/NctIaqK55PZa/5kAiZgfirrvumtyTAJU2z2ssfIgnnnhCEW1qf1MiJmecd955yW8JUAFTGRPXXHONIubOIOM+4hdffFF1bkydOlV12HGj34f+MsbbNoWoWkiGKl9qR0HfrpBz8lsC9P/QDybKRoXOTZo0Sfn2RBm02qHGzgpRxMlvCdD/zDAfab4l9yRAPxn3MdSlKSSNlY+LHSOioNT9RUlACqDqHFm2bBlEFeDvf/87pIBDmlKQFkDybI3uglS2qiNLyBR333232se8Yj4KyajvrUHIUvUv0OffGkQ8JP9KQBQUhNDX6yzbd999IUpSdYhJixJS2UNIXj0b/Zwp8DfSkoRU/Mk9a8H+mf/973/JbwlfJn2zjUF/btN9zUFah8qOZ86cqcoSNxEXyaOJ6whBKd9xCqlyw7RJgWWWoYCNQd81yyjPbwpRrpDKQpUVaWmoMsTftwRev2kas29JSHW9MDshbFVeRbQl96wF+53oaxcFrTjqyCOPVNvjjz+u3ofHjz/+eIjoVP0LvEdHkHEiliYTpIZVHXT333+/2r744gtIDQqpgZK/SoCda9JcWa+3OmUYTY2z6XeiqRHxOxNHak98++23amO8JEmTlUJrYAXSGMz0pvsIZh7BTp7mwEIttau6b+oZpBmoChUNjvjHP/6B6dOnK1JmL7IojnYVCI3MIJWn7DhlYSNouyRmVqZtQRSvuoaoxeSe5tHUhlmoRcUlv60FO8YIEi3BzmQSEjugKRhStszjJFiWr6agfXq93uS3roHlgDHTjKEeNmwYpHXQLHE2RkvluDk07vQj+NyM5pAWsOrg+9Of/qQqFqI1QcVjLLeNwQ7J5tKHPEGwvDYFKx5uzE/mD0mcm7R8IS1n9W4UWizXTAdWkiT75sRZc8goEXN0GcmFNSVrTKpTbtx3xRVXKANnTUKwF5Iq+N13312nFiVKS0vVJw2sMdhr2TSRm2LzzTdX5/F3TKjUxnCd1HXbi5122kllYtMoCfbg0lB22GGH5J61oCFI80+9d+P7jxs3TlVQjQ1u/PjxqkAxvRg5wjTT6F4ccsghqsCRhEl+7VHDxNChQ9VneXm5+mwJKcJPgbbBCropGKlDW6LNELTnyy67DIsWLcINN9ygwsCkya9IkQTJ/U2xdOlSZfetgYTSGrGlwN+kQyi0dL+m6fLYY4/hyy+/VMRGAXfRRRepcNimaro5NH1Oip+mZZhgJAzRtCVMkJNYGVIkUTCmNg6GYYXoSYa5sRVFLwCjJtgCYEuGrYO2kFEipvHSsEgwTcEXYsgIm3oEmw9sGvBF+BKpjSRKMqXhseZhwpO8+fKsoRoTMY81zRiqF6pMFqhUGA+bMi+88IJqwrUEZl7TDNx9993V9Y444gjVTCVY0NhUYSzm5MmT1b6mz3HJJZco1wwzjk0lggbF1gLBCouKPWV8qULUtOmkkX1YLBYVvnj++eerwnbwwQcnj7QOhnLRXq699tr1SKU1AmNLiITT1G3HEXC77babGslH+0/ZF+2fJEzQFUK1ybLE3ze+DxX6s88+i//7v/9L7mkeFAZNBU9z4DsxbboKqtD23I+VE5UoK5kUHnroIfXZnoqjMei24fWaug9uueUWxVUbb7xxcs9a8DmZn3QhNs1PCkKCfJQCK0SOJCY/tOY6SSFjREySJbm0lPF8UPrC3njjDTz55JNKEf/222+KzLbbbrs1G/czA6ieWROOGjVKESsNLkV8KbAGatrkYCZxAAn9altssYWq7UjsjP9NNUWaguewCdK0eUSjZ8XB/fRjU9Vuv/326pka+3WbPgdrRdacVDBjxoxRCnn//fdfEwtJtXP44YerZ+MxPhsrCqaRRnaRIrhUhUmcdNJJqvCxADcmH8aJNm7q0y2QUlUEVRzzlnnKuPZrrrlGqTiekxIQTdUSiZ79B2zyUvWRHHbZZRfVp5Jy5TE2mNekj5THaV+0HfosCdoabZg+XKplkgfLCm3s1FNPVb8h2ARPkUgKLJN0j5x99tl49NFH1yOdFLj/u+++U5UDn48bfaMc6ELwHZk+jZGqGBq/MysN9r2wbFBJEnyuxn5vghUU+5b4e74zfcSp8tOcuzAFPkeq1Z3Ctttuq9KOeUEfPq/Hv0nMLHcp10nT9GFcOUmV6Xr99dcrdyLziWMKCPrryQc333yzymu28EnG7RFUGZtrgobMWpidWy35hJhArEX4CDQcJigzq3ENRwWQIkwayE8//aSIj4nBROKxFOmxEPBaLb04XSI0YjbvmpJ4Y/AafPbCwkI1uqY5sNKgcmXtSRXfGHwOvkdTFwufl+qXhZn3b+wa4bvx+dj8oW8p1bGhkV2QOElAbLE1rgjpMqNfsnGe0Y3EvE+NJiOR0HZIEimQjDj3xFdffaXski0n9heQjFhwDz300DX9BI3B1hIHjpDc//znP6tCnbJrKsiHH35YCR2WIRZ+Fniq8BRYrnhf9sfQltgiJME3BomHTfSmYunpp59WIwTpamMF0hwoSNhxxedrXF7ZqmXFwL4euuPOOuus5JFEeSeZTZkyRVUkBMsJn/Ptt99WFQWJkX+z/DWuNAi2FEh6vCcrR6YLn5OVRnM+X16bacwKgp3gTcGOPw7uYtkjObNlkXIpEcxzuiJPO+205J6EfbCi47OwfPMZ+Cz8myqbfWEcjEU7Yd4ec8wxyTNbR1Yn/dHQ0NDQWB8Z9RFraGhoaLQNTcQaGhoa3QxNxBoaGhrdDE3EGhoaGt0MTcQaGhoa3QxNxBoaGhrdDE3EGhoaGt0MTcQaGhoa3QxNxBoaGhrdDE3EGhoaGt0MTcQaGhoa3Qrg/wGFt1GXiNtSjAAAAABJRU5ErkJggg==;" vertex="1" parent="1">
          <mxGeometry x="330" y="680" width="354" height="276" as="geometry" />
        </mxCell>
        <mxCell id="0se6hAvx2Fd7axTDWcM9-11" value="" style="html=1;verticalLabelPosition=bottom;align=center;labelBackgroundColor=#ffffff;verticalAlign=top;strokeWidth=2;strokeColor=#0080F0;shadow=0;dashed=0;shape=mxgraph.ios7.icons.user;" vertex="1" parent="1">
          <mxGeometry x="205" y="1080" width="70" height="60" as="geometry" />
        </mxCell>
        <mxCell id="0se6hAvx2Fd7axTDWcM9-12" value="" style="edgeStyle=orthogonalEdgeStyle;rounded=0;orthogonalLoop=1;jettySize=auto;html=1;" edge="1" parent="1" source="0se6hAvx2Fd7axTDWcM9-18" target="0se6hAvx2Fd7axTDWcM9-14">
          <mxGeometry relative="1" as="geometry" />
        </mxCell>
        <mxCell id="0se6hAvx2Fd7axTDWcM9-13" value="Owner" style="rounded=1;whiteSpace=wrap;html=1;" vertex="1" parent="1">
          <mxGeometry x="180" y="1140" width="120" height="60" as="geometry" />
        </mxCell>
        <mxCell id="0se6hAvx2Fd7axTDWcM9-14" value="RBAC &lt;br&gt;Administrator" style="rounded=1;whiteSpace=wrap;html=1;" vertex="1" parent="1">
          <mxGeometry x="180" y="1330" width="120" height="60" as="geometry" />
        </mxCell>
        <mxCell id="0se6hAvx2Fd7axTDWcM9-15" value="" style="html=1;verticalLabelPosition=bottom;align=center;labelBackgroundColor=#ffffff;verticalAlign=top;strokeWidth=2;strokeColor=#0080F0;shadow=0;dashed=0;shape=mxgraph.ios7.icons.user;" vertex="1" parent="1">
          <mxGeometry x="205" y="1460" width="70" height="60" as="geometry" />
        </mxCell>
        <mxCell id="0se6hAvx2Fd7axTDWcM9-42" value="" style="edgeStyle=orthogonalEdgeStyle;rounded=0;orthogonalLoop=1;jettySize=auto;html=1;" edge="1" parent="1" source="0se6hAvx2Fd7axTDWcM9-16" target="0se6hAvx2Fd7axTDWcM9-33">
          <mxGeometry relative="1" as="geometry" />
        </mxCell>
        <mxCell id="0se6hAvx2Fd7axTDWcM9-16" value="Contributor" style="rounded=1;whiteSpace=wrap;html=1;" vertex="1" parent="1">
          <mxGeometry x="180" y="1520" width="120" height="60" as="geometry" />
        </mxCell>
        <mxCell id="0se6hAvx2Fd7axTDWcM9-17" value="" style="edgeStyle=orthogonalEdgeStyle;rounded=0;orthogonalLoop=1;jettySize=auto;html=1;" edge="1" parent="1" source="0se6hAvx2Fd7axTDWcM9-13" target="0se6hAvx2Fd7axTDWcM9-18">
          <mxGeometry relative="1" as="geometry">
            <mxPoint x="240" y="1200" as="sourcePoint" />
            <mxPoint x="240" y="1310" as="targetPoint" />
          </mxGeometry>
        </mxCell>
        <mxCell id="0se6hAvx2Fd7axTDWcM9-18" value="" style="html=1;verticalLabelPosition=bottom;align=center;labelBackgroundColor=#ffffff;verticalAlign=top;strokeWidth=2;strokeColor=#0080F0;shadow=0;dashed=0;shape=mxgraph.ios7.icons.user;" vertex="1" parent="1">
          <mxGeometry x="205" y="1270" width="70" height="60" as="geometry" />
        </mxCell>
        <mxCell id="0se6hAvx2Fd7axTDWcM9-19" value="" style="edgeStyle=orthogonalEdgeStyle;rounded=0;orthogonalLoop=1;jettySize=auto;html=1;" edge="1" parent="1">
          <mxGeometry relative="1" as="geometry">
            <mxPoint x="239.64" y="1390" as="sourcePoint" />
            <mxPoint x="239.64" y="1460" as="targetPoint" />
          </mxGeometry>
        </mxCell>
        <mxCell id="0se6hAvx2Fd7axTDWcM9-20" value="" style="html=1;verticalLabelPosition=bottom;align=center;labelBackgroundColor=#ffffff;verticalAlign=top;strokeWidth=2;strokeColor=#0080F0;shadow=0;dashed=0;shape=mxgraph.ios7.icons.user;" vertex="1" parent="1">
          <mxGeometry x="725" y="1080" width="70" height="60" as="geometry" />
        </mxCell>
        <mxCell id="0se6hAvx2Fd7axTDWcM9-21" value="" style="edgeStyle=orthogonalEdgeStyle;rounded=0;orthogonalLoop=1;jettySize=auto;html=1;" edge="1" parent="1" source="0se6hAvx2Fd7axTDWcM9-27" target="0se6hAvx2Fd7axTDWcM9-23">
          <mxGeometry relative="1" as="geometry" />
        </mxCell>
        <mxCell id="0se6hAvx2Fd7axTDWcM9-22" value="Global&amp;nbsp;&lt;br&gt;Administrator" style="rounded=1;whiteSpace=wrap;html=1;" vertex="1" parent="1">
          <mxGeometry x="700" y="1140" width="120" height="60" as="geometry" />
        </mxCell>
        <mxCell id="0se6hAvx2Fd7axTDWcM9-23" value="User&lt;br&gt;Administrator" style="rounded=1;whiteSpace=wrap;html=1;" vertex="1" parent="1">
          <mxGeometry x="700" y="1330" width="120" height="60" as="geometry" />
        </mxCell>
        <mxCell id="0se6hAvx2Fd7axTDWcM9-24" value="" style="html=1;verticalLabelPosition=bottom;align=center;labelBackgroundColor=#ffffff;verticalAlign=top;strokeWidth=2;strokeColor=#0080F0;shadow=0;dashed=0;shape=mxgraph.ios7.icons.user;" vertex="1" parent="1">
          <mxGeometry x="725" y="1460" width="70" height="60" as="geometry" />
        </mxCell>
        <mxCell id="0se6hAvx2Fd7axTDWcM9-25" value="Billing&lt;br&gt;Administrator" style="rounded=1;whiteSpace=wrap;html=1;" vertex="1" parent="1">
          <mxGeometry x="700" y="1520" width="120" height="60" as="geometry" />
        </mxCell>
        <mxCell id="0se6hAvx2Fd7axTDWcM9-26" value="" style="edgeStyle=orthogonalEdgeStyle;rounded=0;orthogonalLoop=1;jettySize=auto;html=1;" edge="1" parent="1" source="0se6hAvx2Fd7axTDWcM9-22" target="0se6hAvx2Fd7axTDWcM9-27">
          <mxGeometry relative="1" as="geometry">
            <mxPoint x="760" y="1200" as="sourcePoint" />
            <mxPoint x="760" y="1310" as="targetPoint" />
          </mxGeometry>
        </mxCell>
        <mxCell id="0se6hAvx2Fd7axTDWcM9-27" value="" style="html=1;verticalLabelPosition=bottom;align=center;labelBackgroundColor=#ffffff;verticalAlign=top;strokeWidth=2;strokeColor=#0080F0;shadow=0;dashed=0;shape=mxgraph.ios7.icons.user;" vertex="1" parent="1">
          <mxGeometry x="725" y="1270" width="70" height="60" as="geometry" />
        </mxCell>
        <mxCell id="0se6hAvx2Fd7axTDWcM9-28" value="" style="edgeStyle=orthogonalEdgeStyle;rounded=0;orthogonalLoop=1;jettySize=auto;html=1;" edge="1" parent="1">
          <mxGeometry relative="1" as="geometry">
            <mxPoint x="759.64" y="1390" as="sourcePoint" />
            <mxPoint x="759.64" y="1460" as="targetPoint" />
          </mxGeometry>
        </mxCell>
        <mxCell id="0se6hAvx2Fd7axTDWcM9-33" value="" style="html=1;verticalLabelPosition=bottom;align=center;labelBackgroundColor=#ffffff;verticalAlign=top;strokeWidth=2;strokeColor=#0080F0;shadow=0;dashed=0;shape=mxgraph.ios7.icons.user;" vertex="1" parent="1">
          <mxGeometry x="205" y="1670" width="70" height="60" as="geometry" />
        </mxCell>
        <mxCell id="0se6hAvx2Fd7axTDWcM9-35" value="Reader" style="rounded=1;whiteSpace=wrap;html=1;" vertex="1" parent="1">
          <mxGeometry x="180" y="1730" width="120" height="60" as="geometry" />
        </mxCell>
        <mxCell id="0se6hAvx2Fd7axTDWcM9-54" value="" style="html=1;verticalLabelPosition=bottom;align=center;labelBackgroundColor=#ffffff;verticalAlign=top;strokeWidth=2;strokeColor=#0080F0;shadow=0;dashed=0;shape=mxgraph.ios7.icons.user;" vertex="1" parent="1">
          <mxGeometry x="472" y="90" width="70" height="60" as="geometry" />
        </mxCell>
        <mxCell id="0se6hAvx2Fd7axTDWcM9-55" value="" style="edgeStyle=orthogonalEdgeStyle;rounded=0;orthogonalLoop=1;jettySize=auto;html=1;" edge="1" parent="1" source="0se6hAvx2Fd7axTDWcM9-61" target="0se6hAvx2Fd7axTDWcM9-57">
          <mxGeometry relative="1" as="geometry" />
        </mxCell>
        <mxCell id="0se6hAvx2Fd7axTDWcM9-56" value="Global&amp;nbsp;&lt;br&gt;Administrator" style="rounded=1;whiteSpace=wrap;html=1;" vertex="1" parent="1">
          <mxGeometry x="447" y="150" width="120" height="60" as="geometry" />
        </mxCell>
        <mxCell id="0se6hAvx2Fd7axTDWcM9-57" value="User&lt;br&gt;Administrator" style="rounded=1;whiteSpace=wrap;html=1;" vertex="1" parent="1">
          <mxGeometry x="447" y="340" width="120" height="60" as="geometry" />
        </mxCell>
        <mxCell id="0se6hAvx2Fd7axTDWcM9-58" value="" style="html=1;verticalLabelPosition=bottom;align=center;labelBackgroundColor=#ffffff;verticalAlign=top;strokeWidth=2;strokeColor=#0080F0;shadow=0;dashed=0;shape=mxgraph.ios7.icons.user;" vertex="1" parent="1">
          <mxGeometry x="472" y="470" width="70" height="60" as="geometry" />
        </mxCell>
        <mxCell id="0se6hAvx2Fd7axTDWcM9-59" value="Billing&lt;br&gt;Administrator" style="rounded=1;whiteSpace=wrap;html=1;" vertex="1" parent="1">
          <mxGeometry x="447" y="530" width="120" height="60" as="geometry" />
        </mxCell>
        <mxCell id="0se6hAvx2Fd7axTDWcM9-60" value="" style="edgeStyle=orthogonalEdgeStyle;rounded=0;orthogonalLoop=1;jettySize=auto;html=1;" edge="1" parent="1" source="0se6hAvx2Fd7axTDWcM9-56" target="0se6hAvx2Fd7axTDWcM9-61">
          <mxGeometry relative="1" as="geometry">
            <mxPoint x="507" y="210" as="sourcePoint" />
            <mxPoint x="507" y="320" as="targetPoint" />
          </mxGeometry>
        </mxCell>
        <mxCell id="0se6hAvx2Fd7axTDWcM9-61" value="" style="html=1;verticalLabelPosition=bottom;align=center;labelBackgroundColor=#ffffff;verticalAlign=top;strokeWidth=2;strokeColor=#0080F0;shadow=0;dashed=0;shape=mxgraph.ios7.icons.user;" vertex="1" parent="1">
          <mxGeometry x="472" y="280" width="70" height="60" as="geometry" />
        </mxCell>
        <mxCell id="0se6hAvx2Fd7axTDWcM9-62" value="" style="edgeStyle=orthogonalEdgeStyle;rounded=0;orthogonalLoop=1;jettySize=auto;html=1;" edge="1" parent="1">
          <mxGeometry relative="1" as="geometry">
            <mxPoint x="506.64" y="400" as="sourcePoint" />
            <mxPoint x="506.64" y="470" as="targetPoint" />
          </mxGeometry>
        </mxCell>
      </root>
    </mxGraphModel>
  </diagram>
</mxfile>
